<?xml version="1.0" encoding="UTF-8" standalone="no"?>
<svg width="612.069mm" height="52.9167mm"
 xmlns="http://www.w3.org/2000/svg" xmlns:xlink="http://www.w3.org/1999/xlink"  version="1.2" baseProfile="tiny">
<title>Qt SVG Document</title>
<desc>Generated with Qt</desc>
<defs>
</defs>
<g fill="none" stroke="black" stroke-width="1" fill-rule="evenodd" stroke-linecap="square" stroke-linejoin="bevel" >

<g fill="none" stroke="#000000" stroke-opacity="1" stroke-width="1" stroke-linecap="square" stroke-linejoin="bevel" transform="matrix(1,0,0,1,0,0)"
font-family="Ubuntu" font-size="11" font-weight="400" font-style="normal" 
>
</g>

<g fill="none" stroke="#000000" stroke-opacity="1" stroke-width="1" stroke-linecap="square" stroke-linejoin="bevel" transform="matrix(1,0,0,1,0,0)"
font-family="Ubuntu" font-size="11" font-weight="400" font-style="normal" 
>
</g>

<g fill="none" stroke="#000000" stroke-opacity="1" stroke-width="1" stroke-linecap="square" stroke-linejoin="bevel" transform="matrix(2,0,0,2,0.0024,150)"
font-family="Ubuntu" font-size="11" font-weight="400" font-style="normal" 
>
</g>

<g fill="#ffffff" fill-opacity="1" stroke="none" transform="matrix(2,0,0,2,0.0024,150)"
font-family="Ubuntu" font-size="11" font-weight="400" font-style="normal" 
>
<rect x="-0.0012" y="-75" width="867.352" height="75"/>
</g>

<g fill="none" stroke="#000000" stroke-opacity="1" stroke-width="1" stroke-linecap="square" stroke-linejoin="bevel" transform="matrix(2,0,0,2,0.0024,150)"
font-family="Ubuntu" font-size="11" font-weight="400" font-style="normal" 
>
</g>

<g fill="none" stroke="#000000" stroke-opacity="1" stroke-width="1" stroke-linecap="square" stroke-linejoin="bevel" transform="matrix(2,0,0,2,0.0024,150)"
font-family="Ubuntu" font-size="11" font-weight="400" font-style="normal" 
>
</g>

<g fill="none" stroke="#000000" stroke-opacity="1" stroke-width="1" stroke-linecap="square" stroke-linejoin="bevel" transform="matrix(2,0,0,2,0.0024,150)"
font-family="Ubuntu" font-size="11" font-weight="400" font-style="normal" 
>
</g>

<g fill="none" stroke="#000000" stroke-opacity="1" stroke-width="1" stroke-linecap="square" stroke-linejoin="bevel" transform="matrix(2,0,0,2,0.0024,150)"
font-family="Ubuntu" font-size="11" font-weight="400" font-style="normal" 
>
</g>

<g fill="none" stroke="#000000" stroke-opacity="1" stroke-width="1" stroke-linecap="square" stroke-linejoin="round" transform="matrix(2,0,0,2,0.0024,150)"
font-family="Ubuntu" font-size="11" font-weight="400" font-style="normal" 
>
<ellipse cx="421.52" cy="-18" rx="70.3444" ry="17.5"/>
</g>

<g fill="none" stroke="#000000" stroke-opacity="1" stroke-width="1" stroke-linecap="square" stroke-linejoin="bevel" transform="matrix(2,0,0,2,0.0024,150)"
font-family="Ubuntu" font-size="11" font-weight="400" font-style="normal" 
>
</g>

<g fill="none" stroke="#000000" stroke-opacity="1" stroke-width="1" stroke-linecap="square" stroke-linejoin="bevel" transform="matrix(2,0,0,2,749.652,101)"
font-family="Ubuntu" font-size="11" font-weight="400" font-style="normal" 
>
</g>

<g fill="none" stroke="#000000" stroke-opacity="1" stroke-width="1" stroke-linecap="square" stroke-linejoin="bevel" transform="matrix(2,0,0,2,749.652,101)"
font-family="sans" font-size="11" font-weight="100" font-style="normal" 
>
</g>

<g fill="#000000" fill-opacity="1" stroke="#000000" stroke-opacity="1" stroke-width="1" stroke-linecap="square" stroke-linejoin="round" transform="matrix(2,0,0,2,749.652,101)"
font-family="sans" font-size="11" font-weight="100" font-style="normal" 
>
<path vector-effect="none" fill-rule="nonzero" d="M2.79688,1.98438 L3.70312,1.98438 L0.90625,11.0156 L0,11.0156 L2.79688,1.98438 M8.57812,4.15625 L8.57812,5.09375 C8.29688,4.94792 8.00521,4.84115 7.70312,4.77344 C7.40104,4.70573 7.08854,4.67188 6.76562,4.67188 C6.27604,4.67188 5.90885,4.7474 5.66406,4.89844 C5.41927,5.04948 5.29688,5.27083 5.29688,5.5625 C5.29688,5.79167 5.38542,5.97135 5.5625,6.10156 C5.73958,6.23177 6.09375,6.35938 6.625,6.48438 L6.95312,6.5625 C7.66146,6.70833 8.16146,6.91927 8.45312,7.19531 C8.74479,7.47135 8.89062,7.85417 8.89062,8.34375 C8.89062,8.89583 8.67188,9.33594 8.23438,9.66406 C7.79688,9.99219 7.1875,10.1562 6.40625,10.1562 C6.08333,10.1562 5.7474,10.125 5.39844,10.0625 C5.04948,10 4.68229,9.90625 4.29688,9.78125 L4.29688,8.76562 C4.66146,8.95312 5.02083,9.09375 5.375,9.1875 C5.72917,9.28125 6.08333,9.32812 6.4375,9.32812 C6.89583,9.32812 7.25,9.2474 7.5,9.08594 C7.75,8.92448 7.875,8.70312 7.875,8.42188 C7.875,8.15104 7.78646,7.94271 7.60938,7.79688 C7.43229,7.65104 7.03646,7.51562 6.42188,7.39062 L6.07812,7.29688 C5.46354,7.17188 5.02083,6.97656 4.75,6.71094 C4.47917,6.44531 4.34375,6.07812 4.34375,5.60938 C4.34375,5.04688 4.54427,4.61198 4.94531,4.30469 C5.34635,3.9974 5.91667,3.84375 6.65625,3.84375 C7.02083,3.84375 7.36458,3.86979 7.6875,3.92188 C8.01042,3.97396 8.30729,4.05208 8.57812,4.15625 M10.4531,3.98438 L11.4531,3.98438 L11.4531,10 L10.4531,10 L10.4531,3.98438 M10.4531,1.64062 L11.4531,1.64062 L11.4531,2.89062 L10.4531,2.89062 L10.4531,1.64062 M18.1875,5.14062 C18.4375,4.69271 18.7344,4.36458 19.0781,4.15625 C19.4219,3.94792 19.8281,3.84375 20.2969,3.84375 C20.9219,3.84375 21.4036,4.0625 21.7422,4.5 C22.0807,4.9375 22.25,5.5625 22.25,6.375 L22.25,10 L21.25,10 L21.25,6.40625 C21.25,5.82292 21.1484,5.39323 20.9453,5.11719 C20.7422,4.84115 20.4323,4.70312 20.0156,4.70312 C19.5052,4.70312 19.1016,4.8724 18.8047,5.21094 C18.5078,5.54948 18.3594,6.01042 18.3594,6.59375 L18.3594,10 L17.3594,10 L17.3594,6.40625 C17.3594,5.82292 17.2578,5.39323 17.0547,5.11719 C16.8516,4.84115 16.5365,4.70312 16.1094,4.70312 C15.6094,4.70312 15.2109,4.8724 14.9141,5.21094 C14.6172,5.54948 14.4688,6.01042 14.4688,6.59375 L14.4688,10 L13.4688,10 L13.4688,3.98438 L14.4688,3.98438 L14.4688,4.92188 C14.6875,4.54688 14.9557,4.27344 15.2734,4.10156 C15.5911,3.92969 15.9635,3.84375 16.3906,3.84375 C16.8281,3.84375 17.2005,3.95312 17.5078,4.17188 C17.8151,4.39062 18.0417,4.71354 18.1875,5.14062 M24.1094,7.625 L24.1094,3.98438 L25.0938,3.98438 L25.0938,7.59375 C25.0938,8.15625 25.2057,8.58073 25.4297,8.86719 C25.6536,9.15365 25.9844,9.29688 26.4219,9.29688 C26.9635,9.29688 27.388,9.1276 27.6953,8.78906 C28.0026,8.45052 28.1562,7.98438 28.1562,7.39062 L28.1562,3.98438 L29.1406,3.98438 L29.1406,10 L28.1562,10 L28.1562,9.07812 C27.9167,9.44271 27.638,9.71354 27.3203,9.89062 C27.0026,10.0677 26.6354,10.1562 26.2188,10.1562 C25.5312,10.1562 25.0078,9.9401 24.6484,9.50781 C24.2891,9.07552 24.1094,8.44792 24.1094,7.625 M31.1719,1.64062 L32.1719,1.64062 L32.1719,10 L31.1719,10 L31.1719,1.64062 M36.9531,6.96875 C36.1615,6.96875 35.612,7.0625 35.3047,7.25 C34.9974,7.4375 34.8438,7.75 34.8438,8.1875 C34.8438,8.53125 34.9583,8.80729 35.1875,9.01562 C35.4167,9.22396 35.7292,9.32812 36.125,9.32812 C36.6771,9.32812 37.1172,9.13281 37.4453,8.74219 C37.7734,8.35156 37.9375,7.83854 37.9375,7.20312 L37.9375,6.96875 L36.9531,6.96875 M38.9219,6.5625 L38.9219,10 L37.9375,10 L37.9375,9.09375 C37.7188,9.45833 37.4401,9.72656 37.1016,9.89844 C36.763,10.0703 36.349,10.1562 35.8594,10.1562 C35.2448,10.1562 34.7552,9.98438 34.3906,9.64062 C34.026,9.29688 33.8438,8.83333 33.8438,8.25 C33.8438,7.57292 34.0703,7.0625 34.5234,6.71875 C34.9766,6.375 35.6562,6.20312 36.5625,6.20312 L37.9375,6.20312 L37.9375,6.10938 C37.9375,5.65104 37.7891,5.29688 37.4922,5.04688 C37.1953,4.79688 36.776,4.67188 36.2344,4.67188 C35.8906,4.67188 35.5547,4.71354 35.2266,4.79688 C34.8984,4.88021 34.5833,5.00521 34.2812,5.17188 L34.2812,4.26562 C34.6458,4.11979 35,4.01302 35.3438,3.94531 C35.6875,3.8776 36.0156,3.84375 36.3281,3.84375 C37.2031,3.84375 37.8542,4.06771 38.2812,4.51562 C38.7083,4.96354 38.9219,5.64583 38.9219,6.5625 M41.9375,2.28125 L41.9375,3.98438 L43.9688,3.98438 L43.9688,4.75 L41.9375,4.75 L41.9375,8.01562 C41.9375,8.50521 42.0052,8.82031 42.1406,8.96094 C42.276,9.10156 42.5469,9.17188 42.9531,9.17188 L43.9688,9.17188 L43.9688,10 L42.9531,10 C42.1927,10 41.6667,9.85677 41.375,9.57031 C41.0833,9.28385 40.9375,8.76562 40.9375,8.01562 L40.9375,4.75 L40.2188,4.75 L40.2188,3.98438 L40.9375,3.98438 L40.9375,2.28125 L41.9375,2.28125 M50.4219,6.75 L50.4219,7.23438 L45.875,7.23438 C45.9167,7.91146 46.1198,8.42708 46.4844,8.78125 C46.849,9.13542 47.3594,9.3125 48.0156,9.3125 C48.401,9.3125 48.7708,9.26562 49.125,9.17188 C49.4792,9.07812 49.8333,8.94271 50.1875,8.76562 L50.1875,9.6875 C49.8333,9.84375 49.4688,9.96094 49.0938,10.0391 C48.7188,10.1172 48.3438,10.1562 47.9688,10.1562 C47,10.1562 46.237,9.8776 45.6797,9.32031 C45.1224,8.76302 44.8438,8.00521 44.8438,7.04688 C44.8438,6.06771 45.1094,5.28906 45.6406,4.71094 C46.1719,4.13281 46.8906,3.84375 47.7969,3.84375 C48.599,3.84375 49.237,4.10417 49.7109,4.625 C50.1849,5.14583 50.4219,5.85417 50.4219,6.75 M49.4219,6.45312 C49.4219,5.91146 49.2734,5.47917 48.9766,5.15625 C48.6797,4.83333 48.2865,4.67188 47.7969,4.67188 C47.2448,4.67188 46.8047,4.82812 46.4766,5.14062 C46.1484,5.45312 45.9583,5.89062 45.9062,6.45312 L49.4219,6.45312 M56,4.89062 L56,1.64062 L56.9844,1.64062 L56.9844,10 L56,10 L56,9.09375 C55.7917,9.45833 55.5286,9.72656 55.2109,9.89844 C54.8932,10.0703 54.5104,10.1562 54.0625,10.1562 C53.3438,10.1562 52.7552,9.86719 52.2969,9.28906 C51.8385,8.71094 51.6094,7.94792 51.6094,7 C51.6094,6.05208 51.8385,5.28906 52.2969,4.71094 C52.7552,4.13281 53.3438,3.84375 54.0625,3.84375 C54.5104,3.84375 54.8932,3.92969 55.2109,4.10156 C55.5286,4.27344 55.7917,4.53646 56,4.89062 M52.625,7 C52.625,7.72917 52.776,8.29948 53.0781,8.71094 C53.3802,9.1224 53.7917,9.32812 54.3125,9.32812 C54.8333,9.32812 55.2448,9.1224 55.5469,8.71094 C55.849,8.29948 56,7.72917 56,7 C56,6.27083 55.849,5.70052 55.5469,5.28906 C55.2448,4.8776 54.8333,4.67188 54.3125,4.67188 C53.7917,4.67188 53.3802,4.8776 53.0781,5.28906 C52.776,5.70052 52.625,6.27083 52.625,7 M63.5781,11.8281 L63.5781,12.5938 L57.8594,12.5938 L57.8594,11.8281 L63.5781,11.8281 M65.4844,2.28125 L65.4844,3.98438 L67.5156,3.98438 L67.5156,4.75 L65.4844,4.75 L65.4844,8.01562 C65.4844,8.50521 65.5521,8.82031 65.6875,8.96094 C65.8229,9.10156 66.0938,9.17188 66.5,9.17188 L67.5156,9.17188 L67.5156,10 L66.5,10 C65.7396,10 65.2135,9.85677 64.9219,9.57031 C64.6302,9.28385 64.4844,8.76562 64.4844,8.01562 L64.4844,4.75 L63.7656,4.75 L63.7656,3.98438 L64.4844,3.98438 L64.4844,2.28125 L65.4844,2.28125 M68.7188,7.625 L68.7188,3.98438 L69.7031,3.98438 L69.7031,7.59375 C69.7031,8.15625 69.8151,8.58073 70.0391,8.86719 C70.263,9.15365 70.5938,9.29688 71.0312,9.29688 C71.5729,9.29688 71.9974,9.1276 72.3047,8.78906 C72.612,8.45052 72.7656,7.98438 72.7656,7.39062 L72.7656,3.98438 L73.75,3.98438 L73.75,10 L72.7656,10 L72.7656,9.07812 C72.526,9.44271 72.2474,9.71354 71.9297,9.89062 C71.612,10.0677 71.2448,10.1562 70.8281,10.1562 C70.1406,10.1562 69.6172,9.9401 69.2578,9.50781 C68.8984,9.07552 68.7188,8.44792 68.7188,7.625 M79.2656,4.90625 C79.1615,4.84375 79.0443,4.79688 78.9141,4.76562 C78.7839,4.73438 78.6406,4.71875 78.4844,4.71875 C77.9219,4.71875 77.4922,4.90104 77.1953,5.26562 C76.8984,5.63021 76.75,6.15104 76.75,6.82812 L76.75,10 L75.75,10 L75.75,3.98438 L76.75,3.98438 L76.75,4.92188 C76.9479,4.55729 77.2135,4.28646 77.5469,4.10938 C77.8802,3.93229 78.2865,3.84375 78.7656,3.84375 C78.8385,3.84375 78.9141,3.84635 78.9922,3.85156 C79.0703,3.85677 79.1615,3.86979 79.2656,3.89062 L79.2656,4.90625 M81.2812,2.28125 L81.2812,3.98438 L83.3125,3.98438 L83.3125,4.75 L81.2812,4.75 L81.2812,8.01562 C81.2812,8.50521 81.349,8.82031 81.4844,8.96094 C81.6198,9.10156 81.8906,9.17188 82.2969,9.17188 L83.3125,9.17188 L83.3125,10 L82.2969,10 C81.5365,10 81.0104,9.85677 80.7188,9.57031 C80.4271,9.28385 80.2812,8.76562 80.2812,8.01562 L80.2812,4.75 L79.5625,4.75 L79.5625,3.98438 L80.2812,3.98438 L80.2812,2.28125 L81.2812,2.28125 M84.6094,1.64062 L85.6094,1.64062 L85.6094,10 L84.6094,10 L84.6094,1.64062 M92.8125,6.75 L92.8125,7.23438 L88.2656,7.23438 C88.3073,7.91146 88.5104,8.42708 88.875,8.78125 C89.2396,9.13542 89.75,9.3125 90.4062,9.3125 C90.7917,9.3125 91.1615,9.26562 91.5156,9.17188 C91.8698,9.07812 92.224,8.94271 92.5781,8.76562 L92.5781,9.6875 C92.224,9.84375 91.8594,9.96094 91.4844,10.0391 C91.1094,10.1172 90.7344,10.1562 90.3594,10.1562 C89.3906,10.1562 88.6276,9.8776 88.0703,9.32031 C87.513,8.76302 87.2344,8.00521 87.2344,7.04688 C87.2344,6.06771 87.5,5.28906 88.0312,4.71094 C88.5625,4.13281 89.2812,3.84375 90.1875,3.84375 C90.9896,3.84375 91.6276,4.10417 92.1016,4.625 C92.5755,5.14583 92.8125,5.85417 92.8125,6.75 M91.8125,6.45312 C91.8125,5.91146 91.6641,5.47917 91.3672,5.15625 C91.0703,4.83333 90.6771,4.67188 90.1875,4.67188 C89.6354,4.67188 89.1953,4.82812 88.8672,5.14062 C88.5391,5.45312 88.349,5.89062 88.2969,6.45312 L91.8125,6.45312"/>
</g>

<g fill="none" stroke="#000000" stroke-opacity="1" stroke-width="1" stroke-linecap="square" stroke-linejoin="bevel" transform="matrix(2,0,0,2,749.652,101)"
font-family="sans" font-size="11" font-weight="100" font-style="normal" 
>
</g>

<g fill="none" stroke="#000000" stroke-opacity="1" stroke-width="1" stroke-linecap="square" stroke-linejoin="bevel" transform="matrix(2,0,0,2,749.652,101)"
font-family="Ubuntu" font-size="11" font-weight="400" font-style="normal" 
>
</g>

<g fill="none" stroke="#000000" stroke-opacity="1" stroke-width="1" stroke-linecap="square" stroke-linejoin="bevel" transform="matrix(2,0,0,2,0.0024,150)"
font-family="Ubuntu" font-size="11" font-weight="400" font-style="normal" 
>
</g>

<g fill="none" stroke="#000000" stroke-opacity="1" stroke-width="1" stroke-linecap="square" stroke-linejoin="bevel" transform="matrix(2,0,0,2,0.0024,150)"
font-family="Ubuntu" font-size="11" font-weight="400" font-style="normal" 
>
</g>

<g fill="none" stroke="#000000" stroke-opacity="1" stroke-width="1" stroke-linecap="square" stroke-linejoin="bevel" transform="matrix(2,0,0,2,0.0024,150)"
font-family="Ubuntu" font-size="11" font-weight="400" font-style="normal" 
>
</g>

<g fill="none" stroke="#000000" stroke-opacity="1" stroke-width="1" stroke-linecap="square" stroke-linejoin="round" transform="matrix(2,0,0,2,0.0024,150)"
font-family="Ubuntu" font-size="11" font-weight="400" font-style="normal" 
>
<ellipse cx="743.86" cy="-57" rx="122.991" ry="17.5"/>
</g>

<g fill="none" stroke="#000000" stroke-opacity="1" stroke-width="1" stroke-linecap="square" stroke-linejoin="bevel" transform="matrix(2,0,0,2,0.0024,150)"
font-family="Ubuntu" font-size="11" font-weight="400" font-style="normal" 
>
</g>

<g fill="none" stroke="#000000" stroke-opacity="1" stroke-width="1" stroke-linecap="square" stroke-linejoin="bevel" transform="matrix(2,0,0,2,1310.28,23)"
font-family="Ubuntu" font-size="11" font-weight="400" font-style="normal" 
>
</g>

<g fill="none" stroke="#000000" stroke-opacity="1" stroke-width="1" stroke-linecap="square" stroke-linejoin="bevel" transform="matrix(2,0,0,2,1310.28,23)"
font-family="sans" font-size="11" font-weight="100" font-style="normal" 
>
</g>

<g fill="#000000" fill-opacity="1" stroke="#000000" stroke-opacity="1" stroke-width="1" stroke-linecap="square" stroke-linejoin="round" transform="matrix(2,0,0,2,1310.28,23)"
font-family="sans" font-size="11" font-weight="100" font-style="normal" 
>
<path vector-effect="none" fill-rule="nonzero" d="M2.79688,1.98438 L3.70312,1.98438 L0.90625,11.0156 L0,11.0156 L2.79688,1.98438 M8.21875,4.90625 C8.11458,4.84375 7.9974,4.79688 7.86719,4.76562 C7.73698,4.73438 7.59375,4.71875 7.4375,4.71875 C6.875,4.71875 6.44531,4.90104 6.14844,5.26562 C5.85156,5.63021 5.70312,6.15104 5.70312,6.82812 L5.70312,10 L4.70312,10 L4.70312,3.98438 L5.70312,3.98438 L5.70312,4.92188 C5.90104,4.55729 6.16667,4.28646 6.5,4.10938 C6.83333,3.93229 7.23958,3.84375 7.71875,3.84375 C7.79167,3.84375 7.86719,3.84635 7.94531,3.85156 C8.02344,3.85677 8.11458,3.86979 8.21875,3.89062 L8.21875,4.90625 M14.4062,6.75 L14.4062,7.23438 L9.85938,7.23438 C9.90104,7.91146 10.1042,8.42708 10.4688,8.78125 C10.8333,9.13542 11.3438,9.3125 12,9.3125 C12.3854,9.3125 12.7552,9.26562 13.1094,9.17188 C13.4635,9.07812 13.8177,8.94271 14.1719,8.76562 L14.1719,9.6875 C13.8177,9.84375 13.4531,9.96094 13.0781,10.0391 C12.7031,10.1172 12.3281,10.1562 11.9531,10.1562 C10.9844,10.1562 10.2214,9.8776 9.66406,9.32031 C9.10677,8.76302 8.82812,8.00521 8.82812,7.04688 C8.82812,6.06771 9.09375,5.28906 9.625,4.71094 C10.1562,4.13281 10.875,3.84375 11.7812,3.84375 C12.5833,3.84375 13.2214,4.10417 13.6953,4.625 C14.1693,5.14583 14.4062,5.85417 14.4062,6.75 M13.4062,6.45312 C13.4062,5.91146 13.2578,5.47917 12.9609,5.15625 C12.6641,4.83333 12.2708,4.67188 11.7812,4.67188 C11.2292,4.67188 10.7891,4.82812 10.4609,5.14062 C10.1328,5.45312 9.94271,5.89062 9.89062,6.45312 L13.4062,6.45312 M20.3438,4.21875 L20.3438,5.14062 C20.0729,4.98438 19.7969,4.86719 19.5156,4.78906 C19.2344,4.71094 18.9479,4.67188 18.6562,4.67188 C18.0208,4.67188 17.526,4.875 17.1719,5.28125 C16.8177,5.6875 16.6406,6.26042 16.6406,7 C16.6406,7.72917 16.8177,8.29688 17.1719,8.70312 C17.526,9.10938 18.0208,9.3125 18.6562,9.3125 C18.9479,9.3125 19.2344,9.27604 19.5156,9.20312 C19.7969,9.13021 20.0729,9.01562 20.3438,8.85938 L20.3438,9.76562 C20.0729,9.90104 19.7891,10 19.4922,10.0625 C19.1953,10.125 18.8802,10.1562 18.5469,10.1562 C17.6406,10.1562 16.9219,9.8724 16.3906,9.30469 C15.8594,8.73698 15.5938,7.96875 15.5938,7 C15.5938,6.02083 15.862,5.25 16.3984,4.6875 C16.9349,4.125 17.6719,3.84375 18.6094,3.84375 C18.9219,3.84375 19.2214,3.875 19.5078,3.9375 C19.7943,4 20.0729,4.09375 20.3438,4.21875 M24.4062,4.67188 C23.875,4.67188 23.4557,4.88021 23.1484,5.29688 C22.8411,5.71354 22.6875,6.28125 22.6875,7 C22.6875,7.71875 22.8385,8.28385 23.1406,8.69531 C23.4427,9.10677 23.8646,9.3125 24.4062,9.3125 C24.9271,9.3125 25.3411,9.10677 25.6484,8.69531 C25.9557,8.28385 26.1094,7.71875 26.1094,7 C26.1094,6.28125 25.9557,5.71354 25.6484,5.29688 C25.3411,4.88021 24.9271,4.67188 24.4062,4.67188 M24.4062,3.84375 C25.2604,3.84375 25.9323,4.1224 26.4219,4.67969 C26.9115,5.23698 27.1562,6.01042 27.1562,7 C27.1562,7.97917 26.9115,8.75 26.4219,9.3125 C25.9323,9.875 25.2604,10.1562 24.4062,10.1562 C23.5417,10.1562 22.8646,9.875 22.375,9.3125 C21.8854,8.75 21.6406,7.97917 21.6406,7 C21.6406,6.01042 21.8854,5.23698 22.375,4.67969 C22.8646,4.1224 23.5417,3.84375 24.4062,3.84375 M32.2656,4.90625 C32.1615,4.84375 32.0443,4.79688 31.9141,4.76562 C31.7839,4.73438 31.6406,4.71875 31.4844,4.71875 C30.9219,4.71875 30.4922,4.90104 30.1953,5.26562 C29.8984,5.63021 29.75,6.15104 29.75,6.82812 L29.75,10 L28.75,10 L28.75,3.98438 L29.75,3.98438 L29.75,4.92188 C29.9479,4.55729 30.2135,4.28646 30.5469,4.10938 C30.8802,3.93229 31.2865,3.84375 31.7656,3.84375 C31.8385,3.84375 31.9141,3.84635 31.9922,3.85156 C32.0703,3.85677 32.1615,3.86979 32.2656,3.89062 L32.2656,4.90625 M37.2656,4.89062 L37.2656,1.64062 L38.25,1.64062 L38.25,10 L37.2656,10 L37.2656,9.09375 C37.0573,9.45833 36.7943,9.72656 36.4766,9.89844 C36.1589,10.0703 35.776,10.1562 35.3281,10.1562 C34.6094,10.1562 34.0208,9.86719 33.5625,9.28906 C33.1042,8.71094 32.875,7.94792 32.875,7 C32.875,6.05208 33.1042,5.28906 33.5625,4.71094 C34.0208,4.13281 34.6094,3.84375 35.3281,3.84375 C35.776,3.84375 36.1589,3.92969 36.4766,4.10156 C36.7943,4.27344 37.0573,4.53646 37.2656,4.89062 M33.8906,7 C33.8906,7.72917 34.0417,8.29948 34.3438,8.71094 C34.6458,9.1224 35.0573,9.32812 35.5781,9.32812 C36.099,9.32812 36.5104,9.1224 36.8125,8.71094 C37.1146,8.29948 37.2656,7.72917 37.2656,7 C37.2656,6.27083 37.1146,5.70052 36.8125,5.28906 C36.5104,4.8776 36.099,4.67188 35.5781,4.67188 C35.0573,4.67188 34.6458,4.8776 34.3438,5.28906 C34.0417,5.70052 33.8906,6.27083 33.8906,7 M44.8438,11.8281 L44.8438,12.5938 L39.125,12.5938 L39.125,11.8281 L44.8438,11.8281 M46.0938,9.09375 L47.875,9.09375 L47.875,2.96875 L45.9375,3.35938 L45.9375,2.375 L47.8594,1.98438 L48.9531,1.98438 L48.9531,9.09375 L50.7188,9.09375 L50.7188,10 L46.0938,10 L46.0938,9.09375 M52.9062,1.98438 L57.1719,1.98438 L57.1719,2.89062 L53.9062,2.89062 L53.9062,4.85938 C54.0625,4.80729 54.2188,4.76823 54.375,4.74219 C54.5312,4.71615 54.6875,4.70312 54.8438,4.70312 C55.7396,4.70312 56.4479,4.94792 56.9688,5.4375 C57.4896,5.92708 57.75,6.58854 57.75,7.42188 C57.75,8.28646 57.4818,8.95833 56.9453,9.4375 C56.4089,9.91667 55.651,10.1562 54.6719,10.1562 C54.3385,10.1562 53.9974,10.1276 53.6484,10.0703 C53.2995,10.013 52.9375,9.92708 52.5625,9.8125 L52.5625,8.71875 C52.8854,8.89583 53.2188,9.02865 53.5625,9.11719 C53.9062,9.20573 54.2708,9.25 54.6562,9.25 C55.2812,9.25 55.7734,9.08594 56.1328,8.75781 C56.4922,8.42969 56.6719,7.98438 56.6719,7.42188 C56.6719,6.86979 56.4922,6.42969 56.1328,6.10156 C55.7734,5.77344 55.2812,5.60938 54.6562,5.60938 C54.3646,5.60938 54.0755,5.64323 53.7891,5.71094 C53.5026,5.77865 53.2083,5.88021 52.9062,6.01562 L52.9062,1.98438 M59.9062,9.82812 L59.9062,8.84375 C60.1771,8.96875 60.4531,9.06771 60.7344,9.14062 C61.0156,9.21354 61.2917,9.25 61.5625,9.25 C62.2812,9.25 62.8281,9.00781 63.2031,8.52344 C63.5781,8.03906 63.7917,7.30729 63.8438,6.32812 C63.6354,6.63021 63.3724,6.86458 63.0547,7.03125 C62.737,7.19792 62.3854,7.28125 62,7.28125 C61.1979,7.28125 60.5625,7.03906 60.0938,6.55469 C59.625,6.07031 59.3906,5.40625 59.3906,4.5625 C59.3906,3.73958 59.6354,3.07812 60.125,2.57812 C60.6146,2.07812 61.2656,1.82812 62.0781,1.82812 C63.0052,1.82812 63.7109,2.1849 64.1953,2.89844 C64.6797,3.61198 64.9219,4.64583 64.9219,6 C64.9219,7.26042 64.6224,8.26823 64.0234,9.02344 C63.4245,9.77865 62.6198,10.1562 61.6094,10.1562 C61.3385,10.1562 61.0625,10.1302 60.7812,10.0781 C60.5,10.026 60.2083,9.94271 59.9062,9.82812 M62.0781,6.4375 C62.5573,6.4375 62.9401,6.27083 63.2266,5.9375 C63.513,5.60417 63.6562,5.14583 63.6562,4.5625 C63.6562,3.98958 63.513,3.53385 63.2266,3.19531 C62.9401,2.85677 62.5573,2.6875 62.0781,2.6875 C61.5885,2.6875 61.2005,2.85677 60.9141,3.19531 C60.6276,3.53385 60.4844,3.98958 60.4844,4.5625 C60.4844,5.14583 60.6276,5.60417 60.9141,5.9375 C61.2005,6.27083 61.5885,6.4375 62.0781,6.4375 M69.3125,5.5625 C68.8333,5.5625 68.4505,5.72917 68.1641,6.0625 C67.8776,6.39583 67.7344,6.84896 67.7344,7.42188 C67.7344,8.00521 67.8776,8.46354 68.1641,8.79688 C68.4505,9.13021 68.8333,9.29688 69.3125,9.29688 C69.8021,9.29688 70.1901,9.13021 70.4766,8.79688 C70.763,8.46354 70.9062,8.00521 70.9062,7.42188 C70.9062,6.84896 70.763,6.39583 70.4766,6.0625 C70.1901,5.72917 69.8021,5.5625 69.3125,5.5625 M71.4688,2.15625 L71.4688,3.14062 C71.1979,3.01562 70.9245,2.91927 70.6484,2.85156 C70.3724,2.78385 70.099,2.75 69.8281,2.75 C69.1094,2.75 68.5599,2.99219 68.1797,3.47656 C67.7995,3.96094 67.5833,4.69271 67.5312,5.67188 C67.75,5.35938 68.0182,5.11979 68.3359,4.95312 C68.6536,4.78646 69.0052,4.70312 69.3906,4.70312 C70.1927,4.70312 70.8281,4.94792 71.2969,5.4375 C71.7656,5.92708 72,6.58854 72,7.42188 C72,8.24479 71.7552,8.90625 71.2656,9.40625 C70.776,9.90625 70.125,10.1562 69.3125,10.1562 C68.3854,10.1562 67.6771,9.79948 67.1875,9.08594 C66.6979,8.3724 66.4531,7.34375 66.4531,6 C66.4531,4.72917 66.7552,3.71615 67.3594,2.96094 C67.9635,2.20573 68.7708,1.82812 69.7812,1.82812 C70.0521,1.82812 70.3255,1.85677 70.6016,1.91406 C70.8776,1.97135 71.1667,2.05208 71.4688,2.15625 M74.0312,9.09375 L75.8125,9.09375 L75.8125,2.96875 L73.875,3.35938 L73.875,2.375 L75.7969,1.98438 L76.8906,1.98438 L76.8906,9.09375 L78.6562,9.09375 L78.6562,10 L74.0312,10 L74.0312,9.09375 M80.8594,9.82812 L80.8594,8.84375 C81.1302,8.96875 81.4062,9.06771 81.6875,9.14062 C81.9688,9.21354 82.2448,9.25 82.5156,9.25 C83.2344,9.25 83.7812,9.00781 84.1562,8.52344 C84.5312,8.03906 84.7448,7.30729 84.7969,6.32812 C84.5885,6.63021 84.3255,6.86458 84.0078,7.03125 C83.6901,7.19792 83.3385,7.28125 82.9531,7.28125 C82.151,7.28125 81.5156,7.03906 81.0469,6.55469 C80.5781,6.07031 80.3438,5.40625 80.3438,4.5625 C80.3438,3.73958 80.5885,3.07812 81.0781,2.57812 C81.5677,2.07812 82.2188,1.82812 83.0312,1.82812 C83.9583,1.82812 84.6641,2.1849 85.1484,2.89844 C85.6328,3.61198 85.875,4.64583 85.875,6 C85.875,7.26042 85.5755,8.26823 84.9766,9.02344 C84.3776,9.77865 83.5729,10.1562 82.5625,10.1562 C82.2917,10.1562 82.0156,10.1302 81.7344,10.0781 C81.4531,10.026 81.1615,9.94271 80.8594,9.82812 M83.0312,6.4375 C83.5104,6.4375 83.8932,6.27083 84.1797,5.9375 C84.4661,5.60417 84.6094,5.14583 84.6094,4.5625 C84.6094,3.98958 84.4661,3.53385 84.1797,3.19531 C83.8932,2.85677 83.5104,2.6875 83.0312,2.6875 C82.5417,2.6875 82.1536,2.85677 81.8672,3.19531 C81.5807,3.53385 81.4375,3.98958 81.4375,4.5625 C81.4375,5.14583 81.5807,5.60417 81.8672,5.9375 C82.1536,6.27083 82.5417,6.4375 83.0312,6.4375 M87.8281,1.98438 L92.0938,1.98438 L92.0938,2.89062 L88.8281,2.89062 L88.8281,4.85938 C88.9844,4.80729 89.1406,4.76823 89.2969,4.74219 C89.4531,4.71615 89.6094,4.70312 89.7656,4.70312 C90.6615,4.70312 91.3698,4.94792 91.8906,5.4375 C92.4115,5.92708 92.6719,6.58854 92.6719,7.42188 C92.6719,8.28646 92.4036,8.95833 91.8672,9.4375 C91.3307,9.91667 90.5729,10.1562 89.5938,10.1562 C89.2604,10.1562 88.9193,10.1276 88.5703,10.0703 C88.2214,10.013 87.8594,9.92708 87.4844,9.8125 L87.4844,8.71875 C87.8073,8.89583 88.1406,9.02865 88.4844,9.11719 C88.8281,9.20573 89.1927,9.25 89.5781,9.25 C90.2031,9.25 90.6953,9.08594 91.0547,8.75781 C91.4141,8.42969 91.5938,7.98438 91.5938,7.42188 C91.5938,6.86979 91.4141,6.42969 91.0547,6.10156 C90.6953,5.77344 90.2031,5.60938 89.5781,5.60938 C89.2865,5.60938 88.9974,5.64323 88.7109,5.71094 C88.4245,5.77865 88.1302,5.88021 87.8281,6.01562 L87.8281,1.98438 M94.8125,1.98438 L99.0781,1.98438 L99.0781,2.89062 L95.8125,2.89062 L95.8125,4.85938 C95.9688,4.80729 96.125,4.76823 96.2812,4.74219 C96.4375,4.71615 96.5938,4.70312 96.75,4.70312 C97.6458,4.70312 98.3542,4.94792 98.875,5.4375 C99.3958,5.92708 99.6562,6.58854 99.6562,7.42188 C99.6562,8.28646 99.388,8.95833 98.8516,9.4375 C98.3151,9.91667 97.5573,10.1562 96.5781,10.1562 C96.2448,10.1562 95.9036,10.1276 95.5547,10.0703 C95.2057,10.013 94.8438,9.92708 94.4688,9.8125 L94.4688,8.71875 C94.7917,8.89583 95.125,9.02865 95.4688,9.11719 C95.8125,9.20573 96.1771,9.25 96.5625,9.25 C97.1875,9.25 97.6797,9.08594 98.0391,8.75781 C98.3984,8.42969 98.5781,7.98438 98.5781,7.42188 C98.5781,6.86979 98.3984,6.42969 98.0391,6.10156 C97.6797,5.77344 97.1875,5.60938 96.5625,5.60938 C96.2708,5.60938 95.9818,5.64323 95.6953,5.71094 C95.4089,5.77865 95.1146,5.88021 94.8125,6.01562 L94.8125,1.98438 M104.766,2.92188 L102.031,7.20312 L104.766,7.20312 L104.766,2.92188 M104.484,1.98438 L105.844,1.98438 L105.844,7.20312 L106.984,7.20312 L106.984,8.10938 L105.844,8.10938 L105.844,10 L104.766,10 L104.766,8.10938 L101.141,8.10938 L101.141,7.0625 L104.484,1.98438 M111.219,5.5625 C110.74,5.5625 110.357,5.72917 110.07,6.0625 C109.784,6.39583 109.641,6.84896 109.641,7.42188 C109.641,8.00521 109.784,8.46354 110.07,8.79688 C110.357,9.13021 110.74,9.29688 111.219,9.29688 C111.708,9.29688 112.096,9.13021 112.383,8.79688 C112.669,8.46354 112.812,8.00521 112.812,7.42188 C112.812,6.84896 112.669,6.39583 112.383,6.0625 C112.096,5.72917 111.708,5.5625 111.219,5.5625 M113.375,2.15625 L113.375,3.14062 C113.104,3.01562 112.831,2.91927 112.555,2.85156 C112.279,2.78385 112.005,2.75 111.734,2.75 C111.016,2.75 110.466,2.99219 110.086,3.47656 C109.706,3.96094 109.49,4.69271 109.438,5.67188 C109.656,5.35938 109.924,5.11979 110.242,4.95312 C110.56,4.78646 110.911,4.70312 111.297,4.70312 C112.099,4.70312 112.734,4.94792 113.203,5.4375 C113.672,5.92708 113.906,6.58854 113.906,7.42188 C113.906,8.24479 113.661,8.90625 113.172,9.40625 C112.682,9.90625 112.031,10.1562 111.219,10.1562 C110.292,10.1562 109.583,9.79948 109.094,9.08594 C108.604,8.3724 108.359,7.34375 108.359,6 C108.359,4.72917 108.661,3.71615 109.266,2.96094 C109.87,2.20573 110.677,1.82812 111.688,1.82812 C111.958,1.82812 112.232,1.85677 112.508,1.91406 C112.784,1.97135 113.073,2.05208 113.375,2.15625 M118.734,2.92188 L116,7.20312 L118.734,7.20312 L118.734,2.92188 M118.453,1.98438 L119.812,1.98438 L119.812,7.20312 L120.953,7.20312 L120.953,8.10938 L119.812,8.10938 L119.812,10 L118.734,10 L118.734,8.10938 L115.109,8.10938 L115.109,7.0625 L118.453,1.98438 M126.031,5.67188 C126.552,5.78646 126.958,6.01823 127.25,6.36719 C127.542,6.71615 127.688,7.15104 127.688,7.67188 C127.688,8.46354 127.414,9.07552 126.867,9.50781 C126.32,9.9401 125.547,10.1562 124.547,10.1562 C124.203,10.1562 123.854,10.1224 123.5,10.0547 C123.146,9.98698 122.781,9.89062 122.406,9.76562 L122.406,8.70312 C122.708,8.88021 123.036,9.01562 123.391,9.10938 C123.745,9.20312 124.12,9.25 124.516,9.25 C125.193,9.25 125.708,9.11458 126.062,8.84375 C126.417,8.57292 126.594,8.18229 126.594,7.67188 C126.594,7.19271 126.43,6.82031 126.102,6.55469 C125.773,6.28906 125.312,6.15625 124.719,6.15625 L123.781,6.15625 L123.781,5.26562 L124.766,5.26562 C125.297,5.26562 125.703,5.15885 125.984,4.94531 C126.266,4.73177 126.406,4.42708 126.406,4.03125 C126.406,3.61458 126.26,3.29688 125.969,3.07812 C125.677,2.85938 125.26,2.75 124.719,2.75 C124.427,2.75 124.109,2.78125 123.766,2.84375 C123.422,2.90625 123.047,3.00521 122.641,3.14062 L122.641,2.17188 C123.057,2.05729 123.445,1.97135 123.805,1.91406 C124.164,1.85677 124.5,1.82812 124.812,1.82812 C125.635,1.82812 126.289,2.01562 126.773,2.39062 C127.258,2.76562 127.5,3.27604 127.5,3.92188 C127.5,4.35938 127.372,4.73177 127.117,5.03906 C126.862,5.34635 126.5,5.55729 126.031,5.67188 M129.75,9.82812 L129.75,8.84375 C130.021,8.96875 130.297,9.06771 130.578,9.14062 C130.859,9.21354 131.135,9.25 131.406,9.25 C132.125,9.25 132.672,9.00781 133.047,8.52344 C133.422,8.03906 133.635,7.30729 133.688,6.32812 C133.479,6.63021 133.216,6.86458 132.898,7.03125 C132.581,7.19792 132.229,7.28125 131.844,7.28125 C131.042,7.28125 130.406,7.03906 129.938,6.55469 C129.469,6.07031 129.234,5.40625 129.234,4.5625 C129.234,3.73958 129.479,3.07812 129.969,2.57812 C130.458,2.07812 131.109,1.82812 131.922,1.82812 C132.849,1.82812 133.555,2.1849 134.039,2.89844 C134.523,3.61198 134.766,4.64583 134.766,6 C134.766,7.26042 134.466,8.26823 133.867,9.02344 C133.268,9.77865 132.464,10.1562 131.453,10.1562 C131.182,10.1562 130.906,10.1302 130.625,10.0781 C130.344,10.026 130.052,9.94271 129.75,9.82812 M131.922,6.4375 C132.401,6.4375 132.784,6.27083 133.07,5.9375 C133.357,5.60417 133.5,5.14583 133.5,4.5625 C133.5,3.98958 133.357,3.53385 133.07,3.19531 C132.784,2.85677 132.401,2.6875 131.922,2.6875 C131.432,2.6875 131.044,2.85677 130.758,3.19531 C130.471,3.53385 130.328,3.98958 130.328,4.5625 C130.328,5.14583 130.471,5.60417 130.758,5.9375 C131.044,6.27083 131.432,6.4375 131.922,6.4375 M139.156,5.5625 C138.677,5.5625 138.294,5.72917 138.008,6.0625 C137.721,6.39583 137.578,6.84896 137.578,7.42188 C137.578,8.00521 137.721,8.46354 138.008,8.79688 C138.294,9.13021 138.677,9.29688 139.156,9.29688 C139.646,9.29688 140.034,9.13021 140.32,8.79688 C140.607,8.46354 140.75,8.00521 140.75,7.42188 C140.75,6.84896 140.607,6.39583 140.32,6.0625 C140.034,5.72917 139.646,5.5625 139.156,5.5625 M141.312,2.15625 L141.312,3.14062 C141.042,3.01562 140.768,2.91927 140.492,2.85156 C140.216,2.78385 139.943,2.75 139.672,2.75 C138.953,2.75 138.404,2.99219 138.023,3.47656 C137.643,3.96094 137.427,4.69271 137.375,5.67188 C137.594,5.35938 137.862,5.11979 138.18,4.95312 C138.497,4.78646 138.849,4.70312 139.234,4.70312 C140.036,4.70312 140.672,4.94792 141.141,5.4375 C141.609,5.92708 141.844,6.58854 141.844,7.42188 C141.844,8.24479 141.599,8.90625 141.109,9.40625 C140.62,9.90625 139.969,10.1562 139.156,10.1562 C138.229,10.1562 137.521,9.79948 137.031,9.08594 C136.542,8.3724 136.297,7.34375 136.297,6 C136.297,4.72917 136.599,3.71615 137.203,2.96094 C137.807,2.20573 138.615,1.82812 139.625,1.82812 C139.896,1.82812 140.169,1.85677 140.445,1.91406 C140.721,1.97135 141.01,2.05208 141.312,2.15625 M146.016,2.6875 C145.453,2.6875 145.031,2.96354 144.75,3.51562 C144.469,4.06771 144.328,4.89583 144.328,6 C144.328,7.09375 144.469,7.91667 144.75,8.46875 C145.031,9.02083 145.453,9.29688 146.016,9.29688 C146.578,9.29688 147,9.02083 147.281,8.46875 C147.562,7.91667 147.703,7.09375 147.703,6 C147.703,4.89583 147.562,4.06771 147.281,3.51562 C147,2.96354 146.578,2.6875 146.016,2.6875 M146.016,1.82812 C146.911,1.82812 147.596,2.1849 148.07,2.89844 C148.544,3.61198 148.781,4.64583 148.781,6 C148.781,7.34375 148.544,8.3724 148.07,9.08594 C147.596,9.79948 146.911,10.1562 146.016,10.1562 C145.12,10.1562 144.432,9.79948 143.953,9.08594 C143.474,8.3724 143.234,7.34375 143.234,6 C143.234,4.64583 143.474,3.61198 143.953,2.89844 C144.432,2.1849 145.12,1.82812 146.016,1.82812 M153,2.6875 C152.438,2.6875 152.016,2.96354 151.734,3.51562 C151.453,4.06771 151.312,4.89583 151.312,6 C151.312,7.09375 151.453,7.91667 151.734,8.46875 C152.016,9.02083 152.438,9.29688 153,9.29688 C153.562,9.29688 153.984,9.02083 154.266,8.46875 C154.547,7.91667 154.688,7.09375 154.688,6 C154.688,4.89583 154.547,4.06771 154.266,3.51562 C153.984,2.96354 153.562,2.6875 153,2.6875 M153,1.82812 C153.896,1.82812 154.581,2.1849 155.055,2.89844 C155.529,3.61198 155.766,4.64583 155.766,6 C155.766,7.34375 155.529,8.3724 155.055,9.08594 C154.581,9.79948 153.896,10.1562 153,10.1562 C152.104,10.1562 151.417,9.79948 150.938,9.08594 C150.458,8.3724 150.219,7.34375 150.219,6 C150.219,4.64583 150.458,3.61198 150.938,2.89844 C151.417,2.1849 152.104,1.82812 153,1.82812 M160.641,2.92188 L157.906,7.20312 L160.641,7.20312 L160.641,2.92188 M160.359,1.98438 L161.719,1.98438 L161.719,7.20312 L162.859,7.20312 L162.859,8.10938 L161.719,8.10938 L161.719,10 L160.641,10 L160.641,8.10938 L157.016,8.10938 L157.016,7.0625 L160.359,1.98438 M166.969,2.6875 C166.406,2.6875 165.984,2.96354 165.703,3.51562 C165.422,4.06771 165.281,4.89583 165.281,6 C165.281,7.09375 165.422,7.91667 165.703,8.46875 C165.984,9.02083 166.406,9.29688 166.969,9.29688 C167.531,9.29688 167.953,9.02083 168.234,8.46875 C168.516,7.91667 168.656,7.09375 168.656,6 C168.656,4.89583 168.516,4.06771 168.234,3.51562 C167.953,2.96354 167.531,2.6875 166.969,2.6875 M166.969,1.82812 C167.865,1.82812 168.549,2.1849 169.023,2.89844 C169.497,3.61198 169.734,4.64583 169.734,6 C169.734,7.34375 169.497,8.3724 169.023,9.08594 C168.549,9.79948 167.865,10.1562 166.969,10.1562 C166.073,10.1562 165.385,9.79948 164.906,9.08594 C164.427,8.3724 164.188,7.34375 164.188,6 C164.188,4.64583 164.427,3.61198 164.906,2.89844 C165.385,2.1849 166.073,1.82812 166.969,1.82812 M174.922,5.67188 C175.443,5.78646 175.849,6.01823 176.141,6.36719 C176.432,6.71615 176.578,7.15104 176.578,7.67188 C176.578,8.46354 176.305,9.07552 175.758,9.50781 C175.211,9.9401 174.438,10.1562 173.438,10.1562 C173.094,10.1562 172.745,10.1224 172.391,10.0547 C172.036,9.98698 171.672,9.89062 171.297,9.76562 L171.297,8.70312 C171.599,8.88021 171.927,9.01562 172.281,9.10938 C172.635,9.20312 173.01,9.25 173.406,9.25 C174.083,9.25 174.599,9.11458 174.953,8.84375 C175.307,8.57292 175.484,8.18229 175.484,7.67188 C175.484,7.19271 175.32,6.82031 174.992,6.55469 C174.664,6.28906 174.203,6.15625 173.609,6.15625 L172.672,6.15625 L172.672,5.26562 L173.656,5.26562 C174.188,5.26562 174.594,5.15885 174.875,4.94531 C175.156,4.73177 175.297,4.42708 175.297,4.03125 C175.297,3.61458 175.151,3.29688 174.859,3.07812 C174.568,2.85938 174.151,2.75 173.609,2.75 C173.318,2.75 173,2.78125 172.656,2.84375 C172.312,2.90625 171.938,3.00521 171.531,3.14062 L171.531,2.17188 C171.948,2.05729 172.336,1.97135 172.695,1.91406 C173.055,1.85677 173.391,1.82812 173.703,1.82812 C174.526,1.82812 175.18,2.01562 175.664,2.39062 C176.148,2.76562 176.391,3.27604 176.391,3.92188 C176.391,4.35938 176.263,4.73177 176.008,5.03906 C175.753,5.34635 175.391,5.55729 174.922,5.67188 "/>
</g>

<g fill="none" stroke="#000000" stroke-opacity="1" stroke-width="1" stroke-linecap="square" stroke-linejoin="bevel" transform="matrix(2,0,0,2,1310.28,23)"
font-family="sans" font-size="11" font-weight="100" font-style="normal" 
>
</g>

<g fill="none" stroke="#000000" stroke-opacity="1" stroke-width="1" stroke-linecap="square" stroke-linejoin="bevel" transform="matrix(2,0,0,2,1310.28,23)"
font-family="Ubuntu" font-size="11" font-weight="400" font-style="normal" 
>
</g>

<g fill="none" stroke="#000000" stroke-opacity="1" stroke-width="1" stroke-linecap="square" stroke-linejoin="bevel" transform="matrix(2,0,0,2,0.0024,150)"
font-family="Ubuntu" font-size="11" font-weight="400" font-style="normal" 
>
</g>

<g fill="none" stroke="#000000" stroke-opacity="1" stroke-width="1" stroke-linecap="square" stroke-linejoin="bevel" transform="matrix(2,0,0,2,0.0024,150)"
font-family="Ubuntu" font-size="11" font-weight="400" font-style="normal" 
>
</g>

<g fill="none" stroke="#000000" stroke-opacity="1" stroke-width="1" stroke-linecap="square" stroke-linejoin="bevel" transform="matrix(2,0,0,2,0.0024,150)"
font-family="Ubuntu" font-size="11" font-weight="400" font-style="normal" 
>
</g>

<g fill="none" stroke="#000000" stroke-opacity="1" stroke-width="1" stroke-linecap="square" stroke-linejoin="round" transform="matrix(2,0,0,2,0.0024,150)"
font-family="Ubuntu" font-size="11" font-weight="400" font-style="normal" 
>
<ellipse cx="116.34" cy="-51" rx="115.841" ry="17.5"/>
</g>

<g fill="none" stroke="#000000" stroke-opacity="1" stroke-width="1" stroke-linecap="square" stroke-linejoin="bevel" transform="matrix(2,0,0,2,0.0024,150)"
font-family="Ubuntu" font-size="11" font-weight="400" font-style="normal" 
>
</g>

<g fill="none" stroke="#000000" stroke-opacity="1" stroke-width="1" stroke-linecap="square" stroke-linejoin="bevel" transform="matrix(2,0,0,2,67.5262,35)"
font-family="Ubuntu" font-size="11" font-weight="400" font-style="normal" 
>
</g>

<g fill="none" stroke="#000000" stroke-opacity="1" stroke-width="1" stroke-linecap="square" stroke-linejoin="bevel" transform="matrix(2,0,0,2,67.5262,35)"
font-family="sans" font-size="11" font-weight="100" font-style="normal" 
>
</g>

<g fill="#000000" fill-opacity="1" stroke="#000000" stroke-opacity="1" stroke-width="1" stroke-linecap="square" stroke-linejoin="round" transform="matrix(2,0,0,2,67.5262,35)"
font-family="sans" font-size="11" font-weight="100" font-style="normal" 
>
<path vector-effect="none" fill-rule="nonzero" d="M2.79688,1.98438 L3.70312,1.98438 L0.90625,11.0156 L0,11.0156 L2.79688,1.98438 M5.70312,9.09375 L5.70312,12.2812 L4.70312,12.2812 L4.70312,3.98438 L5.70312,3.98438 L5.70312,4.89062 C5.90104,4.53646 6.15885,4.27344 6.47656,4.10156 C6.79427,3.92969 7.17708,3.84375 7.625,3.84375 C8.35417,3.84375 8.94531,4.13281 9.39844,4.71094 C9.85156,5.28906 10.0781,6.05208 10.0781,7 C10.0781,7.94792 9.85156,8.71094 9.39844,9.28906 C8.94531,9.86719 8.35417,10.1562 7.625,10.1562 C7.17708,10.1562 6.79427,10.0703 6.47656,9.89844 C6.15885,9.72656 5.90104,9.45833 5.70312,9.09375 M9.0625,7 C9.0625,6.27083 8.91146,5.70052 8.60938,5.28906 C8.30729,4.8776 7.89583,4.67188 7.375,4.67188 C6.85417,4.67188 6.44531,4.8776 6.14844,5.28906 C5.85156,5.70052 5.70312,6.27083 5.70312,7 C5.70312,7.72917 5.85156,8.29948 6.14844,8.71094 C6.44531,9.1224 6.85417,9.32812 7.375,9.32812 C7.89583,9.32812 8.30729,9.1224 8.60938,8.71094 C8.91146,8.29948 9.0625,7.72917 9.0625,7 M11.7031,1.64062 L12.7031,1.64062 L12.7031,10 L11.7031,10 L11.7031,1.64062 M17.4844,6.96875 C16.6927,6.96875 16.1432,7.0625 15.8359,7.25 C15.5286,7.4375 15.375,7.75 15.375,8.1875 C15.375,8.53125 15.4896,8.80729 15.7188,9.01562 C15.9479,9.22396 16.2604,9.32812 16.6562,9.32812 C17.2083,9.32812 17.6484,9.13281 17.9766,8.74219 C18.3047,8.35156 18.4688,7.83854 18.4688,7.20312 L18.4688,6.96875 L17.4844,6.96875 M19.4531,6.5625 L19.4531,10 L18.4688,10 L18.4688,9.09375 C18.25,9.45833 17.9714,9.72656 17.6328,9.89844 C17.2943,10.0703 16.8802,10.1562 16.3906,10.1562 C15.776,10.1562 15.2865,9.98438 14.9219,9.64062 C14.5573,9.29688 14.375,8.83333 14.375,8.25 C14.375,7.57292 14.6016,7.0625 15.0547,6.71875 C15.5078,6.375 16.1875,6.20312 17.0938,6.20312 L18.4688,6.20312 L18.4688,6.10938 C18.4688,5.65104 18.3203,5.29688 18.0234,5.04688 C17.7266,4.79688 17.3073,4.67188 16.7656,4.67188 C16.4219,4.67188 16.0859,4.71354 15.7578,4.79688 C15.4297,4.88021 15.1146,5.00521 14.8125,5.17188 L14.8125,4.26562 C15.1771,4.11979 15.5312,4.01302 15.875,3.94531 C16.2188,3.8776 16.5469,3.84375 16.8594,3.84375 C17.7344,3.84375 18.3854,4.06771 18.8125,4.51562 C19.2396,4.96354 19.4531,5.64583 19.4531,6.5625 M24,10.5625 C23.7188,11.2812 23.4453,11.7474 23.1797,11.9609 C22.9141,12.1745 22.5573,12.2812 22.1094,12.2812 L21.3281,12.2812 L21.3281,11.4688 L21.9062,11.4688 C22.1771,11.4688 22.388,11.4036 22.5391,11.2734 C22.6901,11.1432 22.8542,10.8385 23.0312,10.3594 L23.2188,9.90625 L20.7812,3.98438 L21.8281,3.98438 L23.7031,8.6875 L25.5938,3.98438 L26.6406,3.98438 L24,10.5625 M32.5625,11.8281 L32.5625,12.5938 L26.8438,12.5938 L26.8438,11.8281 L32.5625,11.8281 M33.8125,9.09375 L35.5938,9.09375 L35.5938,2.96875 L33.6562,3.35938 L33.6562,2.375 L35.5781,1.98438 L36.6719,1.98438 L36.6719,9.09375 L38.4375,9.09375 L38.4375,10 L33.8125,10 L33.8125,9.09375 M40.625,1.98438 L44.8906,1.98438 L44.8906,2.89062 L41.625,2.89062 L41.625,4.85938 C41.7812,4.80729 41.9375,4.76823 42.0938,4.74219 C42.25,4.71615 42.4062,4.70312 42.5625,4.70312 C43.4583,4.70312 44.1667,4.94792 44.6875,5.4375 C45.2083,5.92708 45.4688,6.58854 45.4688,7.42188 C45.4688,8.28646 45.2005,8.95833 44.6641,9.4375 C44.1276,9.91667 43.3698,10.1562 42.3906,10.1562 C42.0573,10.1562 41.7161,10.1276 41.3672,10.0703 C41.0182,10.013 40.6562,9.92708 40.2812,9.8125 L40.2812,8.71875 C40.6042,8.89583 40.9375,9.02865 41.2812,9.11719 C41.625,9.20573 41.9896,9.25 42.375,9.25 C43,9.25 43.4922,9.08594 43.8516,8.75781 C44.2109,8.42969 44.3906,7.98438 44.3906,7.42188 C44.3906,6.86979 44.2109,6.42969 43.8516,6.10156 C43.4922,5.77344 43,5.60938 42.375,5.60938 C42.0833,5.60938 41.7943,5.64323 41.5078,5.71094 C41.2214,5.77865 40.9271,5.88021 40.625,6.01562 L40.625,1.98438 M47.625,9.82812 L47.625,8.84375 C47.8958,8.96875 48.1719,9.06771 48.4531,9.14062 C48.7344,9.21354 49.0104,9.25 49.2812,9.25 C50,9.25 50.5469,9.00781 50.9219,8.52344 C51.2969,8.03906 51.5104,7.30729 51.5625,6.32812 C51.3542,6.63021 51.0911,6.86458 50.7734,7.03125 C50.4557,7.19792 50.1042,7.28125 49.7188,7.28125 C48.9167,7.28125 48.2812,7.03906 47.8125,6.55469 C47.3438,6.07031 47.1094,5.40625 47.1094,4.5625 C47.1094,3.73958 47.3542,3.07812 47.8438,2.57812 C48.3333,2.07812 48.9844,1.82812 49.7969,1.82812 C50.724,1.82812 51.4297,2.1849 51.9141,2.89844 C52.3984,3.61198 52.6406,4.64583 52.6406,6 C52.6406,7.26042 52.3411,8.26823 51.7422,9.02344 C51.1432,9.77865 50.3385,10.1562 49.3281,10.1562 C49.0573,10.1562 48.7812,10.1302 48.5,10.0781 C48.2188,10.026 47.9271,9.94271 47.625,9.82812 M49.7969,6.4375 C50.276,6.4375 50.6589,6.27083 50.9453,5.9375 C51.2318,5.60417 51.375,5.14583 51.375,4.5625 C51.375,3.98958 51.2318,3.53385 50.9453,3.19531 C50.6589,2.85677 50.276,2.6875 49.7969,2.6875 C49.3073,2.6875 48.9193,2.85677 48.6328,3.19531 C48.3464,3.53385 48.2031,3.98958 48.2031,4.5625 C48.2031,5.14583 48.3464,5.60417 48.6328,5.9375 C48.9193,6.27083 49.3073,6.4375 49.7969,6.4375 M57.0312,5.5625 C56.5521,5.5625 56.1693,5.72917 55.8828,6.0625 C55.5964,6.39583 55.4531,6.84896 55.4531,7.42188 C55.4531,8.00521 55.5964,8.46354 55.8828,8.79688 C56.1693,9.13021 56.5521,9.29688 57.0312,9.29688 C57.5208,9.29688 57.9089,9.13021 58.1953,8.79688 C58.4818,8.46354 58.625,8.00521 58.625,7.42188 C58.625,6.84896 58.4818,6.39583 58.1953,6.0625 C57.9089,5.72917 57.5208,5.5625 57.0312,5.5625 M59.1875,2.15625 L59.1875,3.14062 C58.9167,3.01562 58.6432,2.91927 58.3672,2.85156 C58.0911,2.78385 57.8177,2.75 57.5469,2.75 C56.8281,2.75 56.2786,2.99219 55.8984,3.47656 C55.5182,3.96094 55.3021,4.69271 55.25,5.67188 C55.4688,5.35938 55.737,5.11979 56.0547,4.95312 C56.3724,4.78646 56.724,4.70312 57.1094,4.70312 C57.9115,4.70312 58.5469,4.94792 59.0156,5.4375 C59.4844,5.92708 59.7188,6.58854 59.7188,7.42188 C59.7188,8.24479 59.474,8.90625 58.9844,9.40625 C58.4948,9.90625 57.8438,10.1562 57.0312,10.1562 C56.1042,10.1562 55.3958,9.79948 54.9062,9.08594 C54.4167,8.3724 54.1719,7.34375 54.1719,6 C54.1719,4.72917 54.474,3.71615 55.0781,2.96094 C55.6823,2.20573 56.4896,1.82812 57.5,1.82812 C57.7708,1.82812 58.0443,1.85677 58.3203,1.91406 C58.5964,1.97135 58.8854,2.05208 59.1875,2.15625 M61.75,9.09375 L63.5312,9.09375 L63.5312,2.96875 L61.5938,3.35938 L61.5938,2.375 L63.5156,1.98438 L64.6094,1.98438 L64.6094,9.09375 L66.375,9.09375 L66.375,10 L61.75,10 L61.75,9.09375 M68.5781,9.82812 L68.5781,8.84375 C68.849,8.96875 69.125,9.06771 69.4062,9.14062 C69.6875,9.21354 69.9635,9.25 70.2344,9.25 C70.9531,9.25 71.5,9.00781 71.875,8.52344 C72.25,8.03906 72.4635,7.30729 72.5156,6.32812 C72.3073,6.63021 72.0443,6.86458 71.7266,7.03125 C71.4089,7.19792 71.0573,7.28125 70.6719,7.28125 C69.8698,7.28125 69.2344,7.03906 68.7656,6.55469 C68.2969,6.07031 68.0625,5.40625 68.0625,4.5625 C68.0625,3.73958 68.3073,3.07812 68.7969,2.57812 C69.2865,2.07812 69.9375,1.82812 70.75,1.82812 C71.6771,1.82812 72.3828,2.1849 72.8672,2.89844 C73.3516,3.61198 73.5938,4.64583 73.5938,6 C73.5938,7.26042 73.2943,8.26823 72.6953,9.02344 C72.0964,9.77865 71.2917,10.1562 70.2812,10.1562 C70.0104,10.1562 69.7344,10.1302 69.4531,10.0781 C69.1719,10.026 68.8802,9.94271 68.5781,9.82812 M70.75,6.4375 C71.2292,6.4375 71.612,6.27083 71.8984,5.9375 C72.1849,5.60417 72.3281,5.14583 72.3281,4.5625 C72.3281,3.98958 72.1849,3.53385 71.8984,3.19531 C71.612,2.85677 71.2292,2.6875 70.75,2.6875 C70.2604,2.6875 69.8724,2.85677 69.5859,3.19531 C69.2995,3.53385 69.1562,3.98958 69.1562,4.5625 C69.1562,5.14583 69.2995,5.60417 69.5859,5.9375 C69.8724,6.27083 70.2604,6.4375 70.75,6.4375 M75.5469,1.98438 L79.8125,1.98438 L79.8125,2.89062 L76.5469,2.89062 L76.5469,4.85938 C76.7031,4.80729 76.8594,4.76823 77.0156,4.74219 C77.1719,4.71615 77.3281,4.70312 77.4844,4.70312 C78.3802,4.70312 79.0885,4.94792 79.6094,5.4375 C80.1302,5.92708 80.3906,6.58854 80.3906,7.42188 C80.3906,8.28646 80.1224,8.95833 79.5859,9.4375 C79.0495,9.91667 78.2917,10.1562 77.3125,10.1562 C76.9792,10.1562 76.638,10.1276 76.2891,10.0703 C75.9401,10.013 75.5781,9.92708 75.2031,9.8125 L75.2031,8.71875 C75.526,8.89583 75.8594,9.02865 76.2031,9.11719 C76.5469,9.20573 76.9115,9.25 77.2969,9.25 C77.9219,9.25 78.4141,9.08594 78.7734,8.75781 C79.1328,8.42969 79.3125,7.98438 79.3125,7.42188 C79.3125,6.86979 79.1328,6.42969 78.7734,6.10156 C78.4141,5.77344 77.9219,5.60938 77.2969,5.60938 C77.0052,5.60938 76.7161,5.64323 76.4297,5.71094 C76.1432,5.77865 75.849,5.88021 75.5469,6.01562 L75.5469,1.98438 M84.8438,6.1875 C84.3229,6.1875 83.9167,6.32552 83.625,6.60156 C83.3333,6.8776 83.1875,7.26042 83.1875,7.75 C83.1875,8.22917 83.3333,8.60677 83.625,8.88281 C83.9167,9.15885 84.3229,9.29688 84.8438,9.29688 C85.3542,9.29688 85.7578,9.15885 86.0547,8.88281 C86.3516,8.60677 86.5,8.22917 86.5,7.75 C86.5,7.26042 86.3542,6.8776 86.0625,6.60156 C85.7708,6.32552 85.3646,6.1875 84.8438,6.1875 M83.75,5.73438 C83.2917,5.61979 82.9323,5.40365 82.6719,5.08594 C82.4115,4.76823 82.2812,4.38021 82.2812,3.92188 C82.2812,3.27604 82.5078,2.76562 82.9609,2.39062 C83.4141,2.01562 84.0417,1.82812 84.8438,1.82812 C85.6354,1.82812 86.2604,2.01562 86.7188,2.39062 C87.1771,2.76562 87.4062,3.27604 87.4062,3.92188 C87.4062,4.38021 87.276,4.76823 87.0156,5.08594 C86.7552,5.40365 86.3958,5.61979 85.9375,5.73438 C86.4583,5.84896 86.8646,6.08333 87.1562,6.4375 C87.4479,6.79167 87.5938,7.22917 87.5938,7.75 C87.5938,8.52083 87.3568,9.11458 86.8828,9.53125 C86.4089,9.94792 85.7292,10.1562 84.8438,10.1562 C83.9583,10.1562 83.2786,9.94792 82.8047,9.53125 C82.3307,9.11458 82.0938,8.52083 82.0938,7.75 C82.0938,7.22917 82.2396,6.79167 82.5312,6.4375 C82.8229,6.08333 83.2292,5.84896 83.75,5.73438 M83.3594,4.01562 C83.3594,4.43229 83.4896,4.75781 83.75,4.99219 C84.0104,5.22656 84.375,5.34375 84.8438,5.34375 C85.3021,5.34375 85.6641,5.22656 85.9297,4.99219 C86.1953,4.75781 86.3281,4.43229 86.3281,4.01562 C86.3281,3.59896 86.1953,3.27344 85.9297,3.03906 C85.6641,2.80469 85.3021,2.6875 84.8438,2.6875 C84.375,2.6875 84.0104,2.80469 83.75,3.03906 C83.4896,3.27344 83.3594,3.59896 83.3594,4.01562 M91.8281,2.6875 C91.2656,2.6875 90.8438,2.96354 90.5625,3.51562 C90.2812,4.06771 90.1406,4.89583 90.1406,6 C90.1406,7.09375 90.2812,7.91667 90.5625,8.46875 C90.8438,9.02083 91.2656,9.29688 91.8281,9.29688 C92.3906,9.29688 92.8125,9.02083 93.0938,8.46875 C93.375,7.91667 93.5156,7.09375 93.5156,6 C93.5156,4.89583 93.375,4.06771 93.0938,3.51562 C92.8125,2.96354 92.3906,2.6875 91.8281,2.6875 M91.8281,1.82812 C92.724,1.82812 93.4089,2.1849 93.8828,2.89844 C94.3568,3.61198 94.5938,4.64583 94.5938,6 C94.5938,7.34375 94.3568,8.3724 93.8828,9.08594 C93.4089,9.79948 92.724,10.1562 91.8281,10.1562 C90.9323,10.1562 90.2448,9.79948 89.7656,9.08594 C89.2865,8.3724 89.0469,7.34375 89.0469,6 C89.0469,4.64583 89.2865,3.61198 89.7656,2.89844 C90.2448,2.1849 90.9323,1.82812 91.8281,1.82812 M98.9375,5.5625 C98.4583,5.5625 98.0755,5.72917 97.7891,6.0625 C97.5026,6.39583 97.3594,6.84896 97.3594,7.42188 C97.3594,8.00521 97.5026,8.46354 97.7891,8.79688 C98.0755,9.13021 98.4583,9.29688 98.9375,9.29688 C99.4271,9.29688 99.8151,9.13021 100.102,8.79688 C100.388,8.46354 100.531,8.00521 100.531,7.42188 C100.531,6.84896 100.388,6.39583 100.102,6.0625 C99.8151,5.72917 99.4271,5.5625 98.9375,5.5625 M101.094,2.15625 L101.094,3.14062 C100.823,3.01562 100.549,2.91927 100.273,2.85156 C99.9974,2.78385 99.724,2.75 99.4531,2.75 C98.7344,2.75 98.1849,2.99219 97.8047,3.47656 C97.4245,3.96094 97.2083,4.69271 97.1562,5.67188 C97.375,5.35938 97.6432,5.11979 97.9609,4.95312 C98.2786,4.78646 98.6302,4.70312 99.0156,4.70312 C99.8177,4.70312 100.453,4.94792 100.922,5.4375 C101.391,5.92708 101.625,6.58854 101.625,7.42188 C101.625,8.24479 101.38,8.90625 100.891,9.40625 C100.401,9.90625 99.75,10.1562 98.9375,10.1562 C98.0104,10.1562 97.3021,9.79948 96.8125,9.08594 C96.3229,8.3724 96.0781,7.34375 96.0781,6 C96.0781,4.72917 96.3802,3.71615 96.9844,2.96094 C97.5885,2.20573 98.3958,1.82812 99.4062,1.82812 C99.6771,1.82812 99.9505,1.85677 100.227,1.91406 C100.503,1.97135 100.792,2.05208 101.094,2.15625 M103.5,9.82812 L103.5,8.84375 C103.771,8.96875 104.047,9.06771 104.328,9.14062 C104.609,9.21354 104.885,9.25 105.156,9.25 C105.875,9.25 106.422,9.00781 106.797,8.52344 C107.172,8.03906 107.385,7.30729 107.438,6.32812 C107.229,6.63021 106.966,6.86458 106.648,7.03125 C106.331,7.19792 105.979,7.28125 105.594,7.28125 C104.792,7.28125 104.156,7.03906 103.688,6.55469 C103.219,6.07031 102.984,5.40625 102.984,4.5625 C102.984,3.73958 103.229,3.07812 103.719,2.57812 C104.208,2.07812 104.859,1.82812 105.672,1.82812 C106.599,1.82812 107.305,2.1849 107.789,2.89844 C108.273,3.61198 108.516,4.64583 108.516,6 C108.516,7.26042 108.216,8.26823 107.617,9.02344 C107.018,9.77865 106.214,10.1562 105.203,10.1562 C104.932,10.1562 104.656,10.1302 104.375,10.0781 C104.094,10.026 103.802,9.94271 103.5,9.82812 M105.672,6.4375 C106.151,6.4375 106.534,6.27083 106.82,5.9375 C107.107,5.60417 107.25,5.14583 107.25,4.5625 C107.25,3.98958 107.107,3.53385 106.82,3.19531 C106.534,2.85677 106.151,2.6875 105.672,2.6875 C105.182,2.6875 104.794,2.85677 104.508,3.19531 C104.221,3.53385 104.078,3.98958 104.078,4.5625 C104.078,5.14583 104.221,5.60417 104.508,5.9375 C104.794,6.27083 105.182,6.4375 105.672,6.4375 M113.438,2.92188 L110.703,7.20312 L113.438,7.20312 L113.438,2.92188 M113.156,1.98438 L114.516,1.98438 L114.516,7.20312 L115.656,7.20312 L115.656,8.10938 L114.516,8.10938 L114.516,10 L113.438,10 L113.438,8.10938 L109.812,8.10938 L109.812,7.0625 L113.156,1.98438 M119.891,5.5625 C119.411,5.5625 119.029,5.72917 118.742,6.0625 C118.456,6.39583 118.312,6.84896 118.312,7.42188 C118.312,8.00521 118.456,8.46354 118.742,8.79688 C119.029,9.13021 119.411,9.29688 119.891,9.29688 C120.38,9.29688 120.768,9.13021 121.055,8.79688 C121.341,8.46354 121.484,8.00521 121.484,7.42188 C121.484,6.84896 121.341,6.39583 121.055,6.0625 C120.768,5.72917 120.38,5.5625 119.891,5.5625 M122.047,2.15625 L122.047,3.14062 C121.776,3.01562 121.503,2.91927 121.227,2.85156 C120.951,2.78385 120.677,2.75 120.406,2.75 C119.688,2.75 119.138,2.99219 118.758,3.47656 C118.378,3.96094 118.161,4.69271 118.109,5.67188 C118.328,5.35938 118.596,5.11979 118.914,4.95312 C119.232,4.78646 119.583,4.70312 119.969,4.70312 C120.771,4.70312 121.406,4.94792 121.875,5.4375 C122.344,5.92708 122.578,6.58854 122.578,7.42188 C122.578,8.24479 122.333,8.90625 121.844,9.40625 C121.354,9.90625 120.703,10.1562 119.891,10.1562 C118.964,10.1562 118.255,9.79948 117.766,9.08594 C117.276,8.3724 117.031,7.34375 117.031,6 C117.031,4.72917 117.333,3.71615 117.938,2.96094 C118.542,2.20573 119.349,1.82812 120.359,1.82812 C120.63,1.82812 120.904,1.85677 121.18,1.91406 C121.456,1.97135 121.745,2.05208 122.047,2.15625 M124.438,1.98438 L128.703,1.98438 L128.703,2.89062 L125.438,2.89062 L125.438,4.85938 C125.594,4.80729 125.75,4.76823 125.906,4.74219 C126.062,4.71615 126.219,4.70312 126.375,4.70312 C127.271,4.70312 127.979,4.94792 128.5,5.4375 C129.021,5.92708 129.281,6.58854 129.281,7.42188 C129.281,8.28646 129.013,8.95833 128.477,9.4375 C127.94,9.91667 127.182,10.1562 126.203,10.1562 C125.87,10.1562 125.529,10.1276 125.18,10.0703 C124.831,10.013 124.469,9.92708 124.094,9.8125 L124.094,8.71875 C124.417,8.89583 124.75,9.02865 125.094,9.11719 C125.438,9.20573 125.802,9.25 126.188,9.25 C126.812,9.25 127.305,9.08594 127.664,8.75781 C128.023,8.42969 128.203,7.98438 128.203,7.42188 C128.203,6.86979 128.023,6.42969 127.664,6.10156 C127.305,5.77344 126.812,5.60938 126.188,5.60938 C125.896,5.60938 125.607,5.64323 125.32,5.71094 C125.034,5.77865 124.74,5.88021 124.438,6.01562 L124.438,1.98438 M134.703,5.67188 C135.224,5.78646 135.63,6.01823 135.922,6.36719 C136.214,6.71615 136.359,7.15104 136.359,7.67188 C136.359,8.46354 136.086,9.07552 135.539,9.50781 C134.992,9.9401 134.219,10.1562 133.219,10.1562 C132.875,10.1562 132.526,10.1224 132.172,10.0547 C131.818,9.98698 131.453,9.89062 131.078,9.76562 L131.078,8.70312 C131.38,8.88021 131.708,9.01562 132.062,9.10938 C132.417,9.20312 132.792,9.25 133.188,9.25 C133.865,9.25 134.38,9.11458 134.734,8.84375 C135.089,8.57292 135.266,8.18229 135.266,7.67188 C135.266,7.19271 135.102,6.82031 134.773,6.55469 C134.445,6.28906 133.984,6.15625 133.391,6.15625 L132.453,6.15625 L132.453,5.26562 L133.438,5.26562 C133.969,5.26562 134.375,5.15885 134.656,4.94531 C134.938,4.73177 135.078,4.42708 135.078,4.03125 C135.078,3.61458 134.932,3.29688 134.641,3.07812 C134.349,2.85938 133.932,2.75 133.391,2.75 C133.099,2.75 132.781,2.78125 132.438,2.84375 C132.094,2.90625 131.719,3.00521 131.312,3.14062 L131.312,2.17188 C131.729,2.05729 132.117,1.97135 132.477,1.91406 C132.836,1.85677 133.172,1.82812 133.484,1.82812 C134.307,1.82812 134.961,2.01562 135.445,2.39062 C135.93,2.76562 136.172,3.27604 136.172,3.92188 C136.172,4.35938 136.044,4.73177 135.789,5.03906 C135.534,5.34635 135.172,5.55729 134.703,5.67188 M140.719,6.1875 C140.198,6.1875 139.792,6.32552 139.5,6.60156 C139.208,6.8776 139.062,7.26042 139.062,7.75 C139.062,8.22917 139.208,8.60677 139.5,8.88281 C139.792,9.15885 140.198,9.29688 140.719,9.29688 C141.229,9.29688 141.633,9.15885 141.93,8.88281 C142.227,8.60677 142.375,8.22917 142.375,7.75 C142.375,7.26042 142.229,6.8776 141.938,6.60156 C141.646,6.32552 141.24,6.1875 140.719,6.1875 M139.625,5.73438 C139.167,5.61979 138.807,5.40365 138.547,5.08594 C138.286,4.76823 138.156,4.38021 138.156,3.92188 C138.156,3.27604 138.383,2.76562 138.836,2.39062 C139.289,2.01562 139.917,1.82812 140.719,1.82812 C141.51,1.82812 142.135,2.01562 142.594,2.39062 C143.052,2.76562 143.281,3.27604 143.281,3.92188 C143.281,4.38021 143.151,4.76823 142.891,5.08594 C142.63,5.40365 142.271,5.61979 141.812,5.73438 C142.333,5.84896 142.74,6.08333 143.031,6.4375 C143.323,6.79167 143.469,7.22917 143.469,7.75 C143.469,8.52083 143.232,9.11458 142.758,9.53125 C142.284,9.94792 141.604,10.1562 140.719,10.1562 C139.833,10.1562 139.154,9.94792 138.68,9.53125 C138.206,9.11458 137.969,8.52083 137.969,7.75 C137.969,7.22917 138.115,6.79167 138.406,6.4375 C138.698,6.08333 139.104,5.84896 139.625,5.73438 M139.234,4.01562 C139.234,4.43229 139.365,4.75781 139.625,4.99219 C139.885,5.22656 140.25,5.34375 140.719,5.34375 C141.177,5.34375 141.539,5.22656 141.805,4.99219 C142.07,4.75781 142.203,4.43229 142.203,4.01562 C142.203,3.59896 142.07,3.27344 141.805,3.03906 C141.539,2.80469 141.177,2.6875 140.719,2.6875 C140.25,2.6875 139.885,2.80469 139.625,3.03906 C139.365,3.27344 139.234,3.59896 139.234,4.01562 M145.562,9.09375 L147.344,9.09375 L147.344,2.96875 L145.406,3.35938 L145.406,2.375 L147.328,1.98438 L148.422,1.98438 L148.422,9.09375 L150.188,9.09375 L150.188,10 L145.562,10 L145.562,9.09375 M154.688,2.6875 C154.125,2.6875 153.703,2.96354 153.422,3.51562 C153.141,4.06771 153,4.89583 153,6 C153,7.09375 153.141,7.91667 153.422,8.46875 C153.703,9.02083 154.125,9.29688 154.688,9.29688 C155.25,9.29688 155.672,9.02083 155.953,8.46875 C156.234,7.91667 156.375,7.09375 156.375,6 C156.375,4.89583 156.234,4.06771 155.953,3.51562 C155.672,2.96354 155.25,2.6875 154.688,2.6875 M154.688,1.82812 C155.583,1.82812 156.268,2.1849 156.742,2.89844 C157.216,3.61198 157.453,4.64583 157.453,6 C157.453,7.34375 157.216,8.3724 156.742,9.08594 C156.268,9.79948 155.583,10.1562 154.688,10.1562 C153.792,10.1562 153.104,9.79948 152.625,9.08594 C152.146,8.3724 151.906,7.34375 151.906,6 C151.906,4.64583 152.146,3.61198 152.625,2.89844 C153.104,2.1849 153.792,1.82812 154.688,1.82812 M161.672,2.6875 C161.109,2.6875 160.688,2.96354 160.406,3.51562 C160.125,4.06771 159.984,4.89583 159.984,6 C159.984,7.09375 160.125,7.91667 160.406,8.46875 C160.688,9.02083 161.109,9.29688 161.672,9.29688 C162.234,9.29688 162.656,9.02083 162.938,8.46875 C163.219,7.91667 163.359,7.09375 163.359,6 C163.359,4.89583 163.219,4.06771 162.938,3.51562 C162.656,2.96354 162.234,2.6875 161.672,2.6875 M161.672,1.82812 C162.568,1.82812 163.253,2.1849 163.727,2.89844 C164.201,3.61198 164.438,4.64583 164.438,6 C164.438,7.34375 164.201,8.3724 163.727,9.08594 C163.253,9.79948 162.568,10.1562 161.672,10.1562 C160.776,10.1562 160.089,9.79948 159.609,9.08594 C159.13,8.3724 158.891,7.34375 158.891,6 C158.891,4.64583 159.13,3.61198 159.609,2.89844 C160.089,2.1849 160.776,1.82812 161.672,1.82812 "/>
</g>

<g fill="none" stroke="#000000" stroke-opacity="1" stroke-width="1" stroke-linecap="square" stroke-linejoin="bevel" transform="matrix(2,0,0,2,67.5262,35)"
font-family="sans" font-size="11" font-weight="100" font-style="normal" 
>
</g>

<g fill="none" stroke="#000000" stroke-opacity="1" stroke-width="1" stroke-linecap="square" stroke-linejoin="bevel" transform="matrix(2,0,0,2,67.5262,35)"
font-family="Ubuntu" font-size="11" font-weight="400" font-style="normal" 
>
</g>

<g fill="none" stroke="#000000" stroke-opacity="1" stroke-width="1" stroke-linecap="square" stroke-linejoin="bevel" transform="matrix(2,0,0,2,0.0024,150)"
font-family="Ubuntu" font-size="11" font-weight="400" font-style="normal" 
>
</g>

<g fill="none" stroke="#000000" stroke-opacity="1" stroke-width="1" stroke-linecap="square" stroke-linejoin="bevel" transform="matrix(2,0,0,2,0.0024,150)"
font-family="Ubuntu" font-size="11" font-weight="400" font-style="normal" 
>
</g>

<g fill="none" stroke="#000000" stroke-opacity="1" stroke-width="1" stroke-linecap="square" stroke-linejoin="bevel" transform="matrix(2,0,0,2,0.0024,150)"
font-family="Ubuntu" font-size="11" font-weight="400" font-style="normal" 
>
</g>

<g fill="none" stroke="#000000" stroke-opacity="1" stroke-width="1" stroke-linecap="square" stroke-linejoin="round" transform="matrix(2,0,0,2,0.0024,150)"
font-family="Ubuntu" font-size="11" font-weight="400" font-style="normal" 
>
<path vector-effect="none" fill-rule="evenodd" d="M485.81,-25.705 C529.31,-31.002 588.09,-38.158 638.46,-44.29 "/>
</g>

<g fill="none" stroke="#000000" stroke-opacity="1" stroke-width="1" stroke-linecap="square" stroke-linejoin="bevel" transform="matrix(2,0,0,2,0.0024,150)"
font-family="Ubuntu" font-size="11" font-weight="400" font-style="normal" 
>
</g>

<g fill="none" stroke="#000000" stroke-opacity="1" stroke-width="1" stroke-linecap="square" stroke-linejoin="bevel" transform="matrix(2,0,0,2,999.477,40)"
font-family="Ubuntu" font-size="11" font-weight="400" font-style="normal" 
>
</g>

<g fill="none" stroke="#000000" stroke-opacity="1" stroke-width="1" stroke-linecap="square" stroke-linejoin="bevel" transform="matrix(2,0,0,2,999.477,40)"
font-family="sans" font-size="11" font-weight="100" font-style="normal" 
>
</g>

<g fill="#000000" fill-opacity="1" stroke="#000000" stroke-opacity="1" stroke-width="1" stroke-linecap="square" stroke-linejoin="round" transform="matrix(2,0,0,2,999.477,40)"
font-family="sans" font-size="11" font-weight="100" font-style="normal" 
>
<path vector-effect="none" fill-rule="nonzero" d="M2.79688,1.98438 L3.70312,1.98438 L0.90625,11.0156 L0,11.0156 L2.79688,1.98438 M5.71875,2.28125 L5.71875,3.98438 L7.75,3.98438 L7.75,4.75 L5.71875,4.75 L5.71875,8.01562 C5.71875,8.50521 5.78646,8.82031 5.92188,8.96094 C6.05729,9.10156 6.32812,9.17188 6.73438,9.17188 L7.75,9.17188 L7.75,10 L6.73438,10 C5.97396,10 5.44792,9.85677 5.15625,9.57031 C4.86458,9.28385 4.71875,8.76562 4.71875,8.01562 L4.71875,4.75 L4,4.75 L4,3.98438 L4.71875,3.98438 L4.71875,2.28125 L5.71875,2.28125 M8.95312,7.625 L8.95312,3.98438 L9.9375,3.98438 L9.9375,7.59375 C9.9375,8.15625 10.0495,8.58073 10.2734,8.86719 C10.4974,9.15365 10.8281,9.29688 11.2656,9.29688 C11.8073,9.29688 12.2318,9.1276 12.5391,8.78906 C12.8464,8.45052 13,7.98438 13,7.39062 L13,3.98438 L13.9844,3.98438 L13.9844,10 L13,10 L13,9.07812 C12.7604,9.44271 12.4818,9.71354 12.1641,9.89062 C11.8464,10.0677 11.4792,10.1562 11.0625,10.1562 C10.375,10.1562 9.85156,9.9401 9.49219,9.50781 C9.13281,9.07552 8.95312,8.44792 8.95312,7.625 M19.5,4.90625 C19.3958,4.84375 19.2786,4.79688 19.1484,4.76562 C19.0182,4.73438 18.875,4.71875 18.7188,4.71875 C18.1562,4.71875 17.7266,4.90104 17.4297,5.26562 C17.1328,5.63021 16.9844,6.15104 16.9844,6.82812 L16.9844,10 L15.9844,10 L15.9844,3.98438 L16.9844,3.98438 L16.9844,4.92188 C17.1823,4.55729 17.4479,4.28646 17.7812,4.10938 C18.1146,3.93229 18.5208,3.84375 19,3.84375 C19.0729,3.84375 19.1484,3.84635 19.2266,3.85156 C19.3047,3.85677 19.3958,3.86979 19.5,3.89062 L19.5,4.90625 M21.5156,2.28125 L21.5156,3.98438 L23.5469,3.98438 L23.5469,4.75 L21.5156,4.75 L21.5156,8.01562 C21.5156,8.50521 21.5833,8.82031 21.7188,8.96094 C21.8542,9.10156 22.125,9.17188 22.5312,9.17188 L23.5469,9.17188 L23.5469,10 L22.5312,10 C21.7708,10 21.2448,9.85677 20.9531,9.57031 C20.6615,9.28385 20.5156,8.76562 20.5156,8.01562 L20.5156,4.75 L19.7969,4.75 L19.7969,3.98438 L20.5156,3.98438 L20.5156,2.28125 L21.5156,2.28125 M24.8438,1.64062 L25.8438,1.64062 L25.8438,10 L24.8438,10 L24.8438,1.64062 M33.0469,6.75 L33.0469,7.23438 L28.5,7.23438 C28.5417,7.91146 28.7448,8.42708 29.1094,8.78125 C29.474,9.13542 29.9844,9.3125 30.6406,9.3125 C31.026,9.3125 31.3958,9.26562 31.75,9.17188 C32.1042,9.07812 32.4583,8.94271 32.8125,8.76562 L32.8125,9.6875 C32.4583,9.84375 32.0938,9.96094 31.7188,10.0391 C31.3438,10.1172 30.9688,10.1562 30.5938,10.1562 C29.625,10.1562 28.862,9.8776 28.3047,9.32031 C27.7474,8.76302 27.4688,8.00521 27.4688,7.04688 C27.4688,6.06771 27.7344,5.28906 28.2656,4.71094 C28.7969,4.13281 29.5156,3.84375 30.4219,3.84375 C31.224,3.84375 31.862,4.10417 32.3359,4.625 C32.8099,5.14583 33.0469,5.85417 33.0469,6.75 M32.0469,6.45312 C32.0469,5.91146 31.8984,5.47917 31.6016,5.15625 C31.3047,4.83333 30.9115,4.67188 30.4219,4.67188 C29.8698,4.67188 29.4297,4.82812 29.1016,5.14062 C28.7734,5.45312 28.5833,5.89062 28.5312,6.45312 L32.0469,6.45312 M34.9844,9.09375 L36.7656,9.09375 L36.7656,2.96875 L34.8281,3.35938 L34.8281,2.375 L36.75,1.98438 L37.8438,1.98438 L37.8438,9.09375 L39.6094,9.09375 L39.6094,10 L34.9844,10 L34.9844,9.09375 M43.4062,1.98438 L44.3125,1.98438 L41.5156,11.0156 L40.6094,11.0156 L43.4062,1.98438 M49.6719,4.21875 L49.6719,5.14062 C49.401,4.98438 49.125,4.86719 48.8438,4.78906 C48.5625,4.71094 48.276,4.67188 47.9844,4.67188 C47.349,4.67188 46.8542,4.875 46.5,5.28125 C46.1458,5.6875 45.9688,6.26042 45.9688,7 C45.9688,7.72917 46.1458,8.29688 46.5,8.70312 C46.8542,9.10938 47.349,9.3125 47.9844,9.3125 C48.276,9.3125 48.5625,9.27604 48.8438,9.20312 C49.125,9.13021 49.401,9.01562 49.6719,8.85938 L49.6719,9.76562 C49.401,9.90104 49.1172,10 48.8203,10.0625 C48.5234,10.125 48.2083,10.1562 47.875,10.1562 C46.9688,10.1562 46.25,9.8724 45.7188,9.30469 C45.1875,8.73698 44.9219,7.96875 44.9219,7 C44.9219,6.02083 45.1901,5.25 45.7266,4.6875 C46.263,4.125 47,3.84375 47.9375,3.84375 C48.25,3.84375 48.5495,3.875 48.8359,3.9375 C49.1224,4 49.401,4.09375 49.6719,4.21875 M53.7344,4.67188 C53.2031,4.67188 52.7839,4.88021 52.4766,5.29688 C52.1693,5.71354 52.0156,6.28125 52.0156,7 C52.0156,7.71875 52.1667,8.28385 52.4688,8.69531 C52.7708,9.10677 53.1927,9.3125 53.7344,9.3125 C54.2552,9.3125 54.6693,9.10677 54.9766,8.69531 C55.2839,8.28385 55.4375,7.71875 55.4375,7 C55.4375,6.28125 55.2839,5.71354 54.9766,5.29688 C54.6693,4.88021 54.2552,4.67188 53.7344,4.67188 M53.7344,3.84375 C54.5885,3.84375 55.2604,4.1224 55.75,4.67969 C56.2396,5.23698 56.4844,6.01042 56.4844,7 C56.4844,7.97917 56.2396,8.75 55.75,9.3125 C55.2604,9.875 54.5885,10.1562 53.7344,10.1562 C52.8698,10.1562 52.1927,9.875 51.7031,9.3125 C51.2135,8.75 50.9688,7.97917 50.9688,7 C50.9688,6.01042 51.2135,5.23698 51.7031,4.67969 C52.1927,4.1224 52.8698,3.84375 53.7344,3.84375 M58.1094,1.64062 L59.1094,1.64062 L59.1094,10 L58.1094,10 L58.1094,1.64062 M63.5,4.67188 C62.9688,4.67188 62.5495,4.88021 62.2422,5.29688 C61.9349,5.71354 61.7812,6.28125 61.7812,7 C61.7812,7.71875 61.9323,8.28385 62.2344,8.69531 C62.5365,9.10677 62.9583,9.3125 63.5,9.3125 C64.0208,9.3125 64.4349,9.10677 64.7422,8.69531 C65.0495,8.28385 65.2031,7.71875 65.2031,7 C65.2031,6.28125 65.0495,5.71354 64.7422,5.29688 C64.4349,4.88021 64.0208,4.67188 63.5,4.67188 M63.5,3.84375 C64.3542,3.84375 65.026,4.1224 65.5156,4.67969 C66.0052,5.23698 66.25,6.01042 66.25,7 C66.25,7.97917 66.0052,8.75 65.5156,9.3125 C65.026,9.875 64.3542,10.1562 63.5,10.1562 C62.6354,10.1562 61.9583,9.875 61.4688,9.3125 C60.9792,8.75 60.7344,7.97917 60.7344,7 C60.7344,6.01042 60.9792,5.23698 61.4688,4.67969 C61.9583,4.1224 62.6354,3.84375 63.5,3.84375 M71.3594,4.90625 C71.2552,4.84375 71.138,4.79688 71.0078,4.76562 C70.8776,4.73438 70.7344,4.71875 70.5781,4.71875 C70.0156,4.71875 69.5859,4.90104 69.2891,5.26562 C68.9922,5.63021 68.8438,6.15104 68.8438,6.82812 L68.8438,10 L67.8438,10 L67.8438,3.98438 L68.8438,3.98438 L68.8438,4.92188 C69.0417,4.55729 69.3073,4.28646 69.6406,4.10938 C69.974,3.93229 70.3802,3.84375 70.8594,3.84375 C70.9323,3.84375 71.0078,3.84635 71.0859,3.85156 C71.1641,3.85677 71.2552,3.86979 71.3594,3.89062 L71.3594,4.90625 M76.9688,11.8281 L76.9688,12.5938 L71.25,12.5938 L71.25,11.8281 L76.9688,11.8281 M81.7344,4.15625 L81.7344,5.09375 C81.4531,4.94792 81.1615,4.84115 80.8594,4.77344 C80.5573,4.70573 80.2448,4.67188 79.9219,4.67188 C79.4323,4.67188 79.0651,4.7474 78.8203,4.89844 C78.5755,5.04948 78.4531,5.27083 78.4531,5.5625 C78.4531,5.79167 78.5417,5.97135 78.7188,6.10156 C78.8958,6.23177 79.25,6.35938 79.7812,6.48438 L80.1094,6.5625 C80.8177,6.70833 81.3177,6.91927 81.6094,7.19531 C81.901,7.47135 82.0469,7.85417 82.0469,8.34375 C82.0469,8.89583 81.8281,9.33594 81.3906,9.66406 C80.9531,9.99219 80.3438,10.1562 79.5625,10.1562 C79.2396,10.1562 78.9036,10.125 78.5547,10.0625 C78.2057,10 77.8385,9.90625 77.4531,9.78125 L77.4531,8.76562 C77.8177,8.95312 78.1771,9.09375 78.5312,9.1875 C78.8854,9.28125 79.2396,9.32812 79.5938,9.32812 C80.0521,9.32812 80.4062,9.2474 80.6562,9.08594 C80.9062,8.92448 81.0312,8.70312 81.0312,8.42188 C81.0312,8.15104 80.9427,7.94271 80.7656,7.79688 C80.5885,7.65104 80.1927,7.51562 79.5781,7.39062 L79.2344,7.29688 C78.6198,7.17188 78.1771,6.97656 77.9062,6.71094 C77.6354,6.44531 77.5,6.07812 77.5,5.60938 C77.5,5.04688 77.7005,4.61198 78.1016,4.30469 C78.5026,3.9974 79.0729,3.84375 79.8125,3.84375 C80.1771,3.84375 80.5208,3.86979 80.8438,3.92188 C81.1667,3.97396 81.4635,4.05208 81.7344,4.15625 M88.7656,6.75 L88.7656,7.23438 L84.2188,7.23438 C84.2604,7.91146 84.4635,8.42708 84.8281,8.78125 C85.1927,9.13542 85.7031,9.3125 86.3594,9.3125 C86.7448,9.3125 87.1146,9.26562 87.4688,9.17188 C87.8229,9.07812 88.1771,8.94271 88.5312,8.76562 L88.5312,9.6875 C88.1771,9.84375 87.8125,9.96094 87.4375,10.0391 C87.0625,10.1172 86.6875,10.1562 86.3125,10.1562 C85.3438,10.1562 84.5807,9.8776 84.0234,9.32031 C83.4661,8.76302 83.1875,8.00521 83.1875,7.04688 C83.1875,6.06771 83.4531,5.28906 83.9844,4.71094 C84.5156,4.13281 85.2344,3.84375 86.1406,3.84375 C86.9427,3.84375 87.5807,4.10417 88.0547,4.625 C88.5286,5.14583 88.7656,5.85417 88.7656,6.75 M87.7656,6.45312 C87.7656,5.91146 87.6172,5.47917 87.3203,5.15625 C87.0234,4.83333 86.6302,4.67188 86.1406,4.67188 C85.5885,4.67188 85.1484,4.82812 84.8203,5.14062 C84.4922,5.45312 84.3021,5.89062 84.25,6.45312 L87.7656,6.45312 M95.375,6.375 L95.375,10 L94.3906,10 L94.3906,6.40625 C94.3906,5.83333 94.2812,5.40625 94.0625,5.125 C93.8438,4.84375 93.5104,4.70312 93.0625,4.70312 C92.5312,4.70312 92.112,4.8724 91.8047,5.21094 C91.4974,5.54948 91.3438,6.01042 91.3438,6.59375 L91.3438,10 L90.3438,10 L90.3438,3.98438 L91.3438,3.98438 L91.3438,4.92188 C91.5729,4.55729 91.849,4.28646 92.1719,4.10938 C92.4948,3.93229 92.8646,3.84375 93.2812,3.84375 C93.9688,3.84375 94.4896,4.05729 94.8438,4.48438 C95.1979,4.91146 95.375,5.54167 95.375,6.375 M101.188,4.15625 L101.188,5.09375 C100.906,4.94792 100.615,4.84115 100.312,4.77344 C100.01,4.70573 99.6979,4.67188 99.375,4.67188 C98.8854,4.67188 98.5182,4.7474 98.2734,4.89844 C98.0286,5.04948 97.9062,5.27083 97.9062,5.5625 C97.9062,5.79167 97.9948,5.97135 98.1719,6.10156 C98.349,6.23177 98.7031,6.35938 99.2344,6.48438 L99.5625,6.5625 C100.271,6.70833 100.771,6.91927 101.062,7.19531 C101.354,7.47135 101.5,7.85417 101.5,8.34375 C101.5,8.89583 101.281,9.33594 100.844,9.66406 C100.406,9.99219 99.7969,10.1562 99.0156,10.1562 C98.6927,10.1562 98.3568,10.125 98.0078,10.0625 C97.6589,10 97.2917,9.90625 96.9062,9.78125 L96.9062,8.76562 C97.2708,8.95312 97.6302,9.09375 97.9844,9.1875 C98.3385,9.28125 98.6927,9.32812 99.0469,9.32812 C99.5052,9.32812 99.8594,9.2474 100.109,9.08594 C100.359,8.92448 100.484,8.70312 100.484,8.42188 C100.484,8.15104 100.396,7.94271 100.219,7.79688 C100.042,7.65104 99.6458,7.51562 99.0312,7.39062 L98.6875,7.29688 C98.0729,7.17188 97.6302,6.97656 97.3594,6.71094 C97.0885,6.44531 96.9531,6.07812 96.9531,5.60938 C96.9531,5.04688 97.1536,4.61198 97.5547,4.30469 C97.9557,3.9974 98.526,3.84375 99.2656,3.84375 C99.6302,3.84375 99.974,3.86979 100.297,3.92188 C100.62,3.97396 100.917,4.05208 101.188,4.15625 M105.406,4.67188 C104.875,4.67188 104.456,4.88021 104.148,5.29688 C103.841,5.71354 103.688,6.28125 103.688,7 C103.688,7.71875 103.839,8.28385 104.141,8.69531 C104.443,9.10677 104.865,9.3125 105.406,9.3125 C105.927,9.3125 106.341,9.10677 106.648,8.69531 C106.956,8.28385 107.109,7.71875 107.109,7 C107.109,6.28125 106.956,5.71354 106.648,5.29688 C106.341,4.88021 105.927,4.67188 105.406,4.67188 M105.406,3.84375 C106.26,3.84375 106.932,4.1224 107.422,4.67969 C107.911,5.23698 108.156,6.01042 108.156,7 C108.156,7.97917 107.911,8.75 107.422,9.3125 C106.932,9.875 106.26,10.1562 105.406,10.1562 C104.542,10.1562 103.865,9.875 103.375,9.3125 C102.885,8.75 102.641,7.97917 102.641,7 C102.641,6.01042 102.885,5.23698 103.375,4.67969 C103.865,4.1224 104.542,3.84375 105.406,3.84375 M113.266,4.90625 C113.161,4.84375 113.044,4.79688 112.914,4.76562 C112.784,4.73438 112.641,4.71875 112.484,4.71875 C111.922,4.71875 111.492,4.90104 111.195,5.26562 C110.898,5.63021 110.75,6.15104 110.75,6.82812 L110.75,10 L109.75,10 L109.75,3.98438 L110.75,3.98438 L110.75,4.92188 C110.948,4.55729 111.214,4.28646 111.547,4.10938 C111.88,3.93229 112.286,3.84375 112.766,3.84375 C112.839,3.84375 112.914,3.84635 112.992,3.85156 C113.07,3.85677 113.161,3.86979 113.266,3.89062 L113.266,4.90625"/>
</g>

<g fill="none" stroke="#000000" stroke-opacity="1" stroke-width="1" stroke-linecap="square" stroke-linejoin="bevel" transform="matrix(2,0,0,2,999.477,40)"
font-family="sans" font-size="11" font-weight="100" font-style="normal" 
>
</g>

<g fill="none" stroke="#000000" stroke-opacity="1" stroke-width="1" stroke-linecap="square" stroke-linejoin="bevel" transform="matrix(2,0,0,2,999.477,40)"
font-family="Ubuntu" font-size="11" font-weight="400" font-style="normal" 
>
</g>

<g fill="none" stroke="#000000" stroke-opacity="1" stroke-width="1" stroke-linecap="square" stroke-linejoin="bevel" transform="matrix(2,0,0,2,0.0024,150)"
font-family="Ubuntu" font-size="11" font-weight="400" font-style="normal" 
>
</g>

<g fill="#000000" fill-opacity="1" stroke="#000000" stroke-opacity="1" stroke-width="1" stroke-linecap="square" stroke-linejoin="round" transform="matrix(2,0,0,2,0.0024,150)"
font-family="Ubuntu" font-size="11" font-weight="400" font-style="normal" 
>
<path vector-effect="none" fill-rule="evenodd" d="M638.46,-44.29 L638.884,-40.804 L648.42,-45.502 L638.036,-47.776 L638.46,-44.29"/>
</g>

<g fill="none" stroke="#000000" stroke-opacity="1" stroke-width="1" stroke-linecap="square" stroke-linejoin="bevel" transform="matrix(2,0,0,2,0.0024,150)"
font-family="Ubuntu" font-size="11" font-weight="400" font-style="normal" 
>
</g>

<g fill="none" stroke="#000000" stroke-opacity="1" stroke-width="1" stroke-linecap="square" stroke-linejoin="bevel" transform="matrix(2,0,0,2,0.0024,150)"
font-family="Ubuntu" font-size="11" font-weight="400" font-style="normal" 
>
</g>

<g fill="none" stroke="#000000" stroke-opacity="1" stroke-width="1" stroke-linecap="square" stroke-linejoin="bevel" transform="matrix(2,0,0,2,0.0024,150)"
font-family="Ubuntu" font-size="11" font-weight="400" font-style="normal" 
>
</g>

<g fill="none" stroke="#000000" stroke-opacity="1" stroke-width="1" stroke-linecap="square" stroke-linejoin="bevel" transform="matrix(2,0,0,2,0.0024,150)"
font-family="Ubuntu" font-size="11" font-weight="400" font-style="normal" 
>
</g>

<g fill="none" stroke="#000000" stroke-opacity="1" stroke-width="1" stroke-linecap="square" stroke-linejoin="round" transform="matrix(2,0,0,2,0.0024,150)"
font-family="Ubuntu" font-size="11" font-weight="400" font-style="normal" 
>
<path vector-effect="none" fill-rule="evenodd" d="M212.02,-40.694 C255.11,-36.005 305.37,-30.534 345.75,-26.139 "/>
</g>

<g fill="none" stroke="#000000" stroke-opacity="1" stroke-width="1" stroke-linecap="square" stroke-linejoin="bevel" transform="matrix(2,0,0,2,0.0024,150)"
font-family="Ubuntu" font-size="11" font-weight="400" font-style="normal" 
>
</g>

<g fill="none" stroke="#000000" stroke-opacity="1" stroke-width="1" stroke-linecap="square" stroke-linejoin="bevel" transform="matrix(2,0,0,2,483.3,46)"
font-family="Ubuntu" font-size="11" font-weight="400" font-style="normal" 
>
</g>

<g fill="none" stroke="#000000" stroke-opacity="1" stroke-width="1" stroke-linecap="square" stroke-linejoin="bevel" transform="matrix(2,0,0,2,483.3,46)"
font-family="sans" font-size="11" font-weight="100" font-style="normal" 
>
</g>

<g fill="#000000" fill-opacity="1" stroke="#000000" stroke-opacity="1" stroke-width="1" stroke-linecap="square" stroke-linejoin="round" transform="matrix(2,0,0,2,483.3,46)"
font-family="sans" font-size="11" font-weight="100" font-style="normal" 
>
<path vector-effect="none" fill-rule="nonzero" d="M2.79688,1.98438 L3.70312,1.98438 L0.90625,11.0156 L0,11.0156 L2.79688,1.98438 M9.42188,5.14062 C9.67188,4.69271 9.96875,4.36458 10.3125,4.15625 C10.6562,3.94792 11.0625,3.84375 11.5312,3.84375 C12.1562,3.84375 12.638,4.0625 12.9766,4.5 C13.3151,4.9375 13.4844,5.5625 13.4844,6.375 L13.4844,10 L12.4844,10 L12.4844,6.40625 C12.4844,5.82292 12.3828,5.39323 12.1797,5.11719 C11.9766,4.84115 11.6667,4.70312 11.25,4.70312 C10.7396,4.70312 10.3359,4.8724 10.0391,5.21094 C9.74219,5.54948 9.59375,6.01042 9.59375,6.59375 L9.59375,10 L8.59375,10 L8.59375,6.40625 C8.59375,5.82292 8.49219,5.39323 8.28906,5.11719 C8.08594,4.84115 7.77083,4.70312 7.34375,4.70312 C6.84375,4.70312 6.44531,4.8724 6.14844,5.21094 C5.85156,5.54948 5.70312,6.01042 5.70312,6.59375 L5.70312,10 L4.70312,10 L4.70312,3.98438 L5.70312,3.98438 L5.70312,4.92188 C5.92188,4.54688 6.1901,4.27344 6.50781,4.10156 C6.82552,3.92969 7.19792,3.84375 7.625,3.84375 C8.0625,3.84375 8.4349,3.95312 8.74219,4.17188 C9.04948,4.39062 9.27604,4.71354 9.42188,5.14062 M17.9531,10.5625 C17.6719,11.2812 17.3984,11.7474 17.1328,11.9609 C16.8672,12.1745 16.5104,12.2812 16.0625,12.2812 L15.2812,12.2812 L15.2812,11.4688 L15.8594,11.4688 C16.1302,11.4688 16.3411,11.4036 16.4922,11.2734 C16.6432,11.1432 16.8073,10.8385 16.9844,10.3594 L17.1719,9.90625 L14.7344,3.98438 L15.7812,3.98438 L17.6562,8.6875 L19.5469,3.98438 L20.5938,3.98438 L17.9531,10.5625 M22.9219,2.28125 L22.9219,3.98438 L24.9531,3.98438 L24.9531,4.75 L22.9219,4.75 L22.9219,8.01562 C22.9219,8.50521 22.9896,8.82031 23.125,8.96094 C23.2604,9.10156 23.5312,9.17188 23.9375,9.17188 L24.9531,9.17188 L24.9531,10 L23.9375,10 C23.1771,10 22.651,9.85677 22.3594,9.57031 C22.0677,9.28385 21.9219,8.76562 21.9219,8.01562 L21.9219,4.75 L21.2031,4.75 L21.2031,3.98438 L21.9219,3.98438 L21.9219,2.28125 L22.9219,2.28125 M26.1562,7.625 L26.1562,3.98438 L27.1406,3.98438 L27.1406,7.59375 C27.1406,8.15625 27.2526,8.58073 27.4766,8.86719 C27.7005,9.15365 28.0312,9.29688 28.4688,9.29688 C29.0104,9.29688 29.4349,9.1276 29.7422,8.78906 C30.0495,8.45052 30.2031,7.98438 30.2031,7.39062 L30.2031,3.98438 L31.1875,3.98438 L31.1875,10 L30.2031,10 L30.2031,9.07812 C29.9635,9.44271 29.6849,9.71354 29.3672,9.89062 C29.0495,10.0677 28.6823,10.1562 28.2656,10.1562 C27.5781,10.1562 27.0547,9.9401 26.6953,9.50781 C26.3359,9.07552 26.1562,8.44792 26.1562,7.625 M36.7031,4.90625 C36.599,4.84375 36.4818,4.79688 36.3516,4.76562 C36.2214,4.73438 36.0781,4.71875 35.9219,4.71875 C35.3594,4.71875 34.9297,4.90104 34.6328,5.26562 C34.3359,5.63021 34.1875,6.15104 34.1875,6.82812 L34.1875,10 L33.1875,10 L33.1875,3.98438 L34.1875,3.98438 L34.1875,4.92188 C34.3854,4.55729 34.651,4.28646 34.9844,4.10938 C35.3177,3.93229 35.724,3.84375 36.2031,3.84375 C36.276,3.84375 36.3516,3.84635 36.4297,3.85156 C36.5078,3.85677 36.599,3.86979 36.7031,3.89062 L36.7031,4.90625 M38.7188,2.28125 L38.7188,3.98438 L40.75,3.98438 L40.75,4.75 L38.7188,4.75 L38.7188,8.01562 C38.7188,8.50521 38.7865,8.82031 38.9219,8.96094 C39.0573,9.10156 39.3281,9.17188 39.7344,9.17188 L40.75,9.17188 L40.75,10 L39.7344,10 C38.974,10 38.4479,9.85677 38.1562,9.57031 C37.8646,9.28385 37.7188,8.76562 37.7188,8.01562 L37.7188,4.75 L37,4.75 L37,3.98438 L37.7188,3.98438 L37.7188,2.28125 L38.7188,2.28125 M42.0469,1.64062 L43.0469,1.64062 L43.0469,10 L42.0469,10 L42.0469,1.64062 M50.25,6.75 L50.25,7.23438 L45.7031,7.23438 C45.7448,7.91146 45.9479,8.42708 46.3125,8.78125 C46.6771,9.13542 47.1875,9.3125 47.8438,9.3125 C48.2292,9.3125 48.599,9.26562 48.9531,9.17188 C49.3073,9.07812 49.6615,8.94271 50.0156,8.76562 L50.0156,9.6875 C49.6615,9.84375 49.2969,9.96094 48.9219,10.0391 C48.5469,10.1172 48.1719,10.1562 47.7969,10.1562 C46.8281,10.1562 46.0651,9.8776 45.5078,9.32031 C44.9505,8.76302 44.6719,8.00521 44.6719,7.04688 C44.6719,6.06771 44.9375,5.28906 45.4688,4.71094 C46,4.13281 46.7188,3.84375 47.625,3.84375 C48.4271,3.84375 49.0651,4.10417 49.5391,4.625 C50.013,5.14583 50.25,5.85417 50.25,6.75 M49.25,6.45312 C49.25,5.91146 49.1016,5.47917 48.8047,5.15625 C48.5078,4.83333 48.1146,4.67188 47.625,4.67188 C47.0729,4.67188 46.6328,4.82812 46.3047,5.14062 C45.9766,5.45312 45.7865,5.89062 45.7344,6.45312 L49.25,6.45312 M53.625,1.98438 L54.5312,1.98438 L51.7344,11.0156 L50.8281,11.0156 L53.625,1.98438 M59.8906,4.21875 L59.8906,5.14062 C59.6198,4.98438 59.3438,4.86719 59.0625,4.78906 C58.7812,4.71094 58.4948,4.67188 58.2031,4.67188 C57.5677,4.67188 57.0729,4.875 56.7188,5.28125 C56.3646,5.6875 56.1875,6.26042 56.1875,7 C56.1875,7.72917 56.3646,8.29688 56.7188,8.70312 C57.0729,9.10938 57.5677,9.3125 58.2031,9.3125 C58.4948,9.3125 58.7812,9.27604 59.0625,9.20312 C59.3438,9.13021 59.6198,9.01562 59.8906,8.85938 L59.8906,9.76562 C59.6198,9.90104 59.3359,10 59.0391,10.0625 C58.7422,10.125 58.4271,10.1562 58.0938,10.1562 C57.1875,10.1562 56.4688,9.8724 55.9375,9.30469 C55.4062,8.73698 55.1406,7.96875 55.1406,7 C55.1406,6.02083 55.4089,5.25 55.9453,4.6875 C56.4818,4.125 57.2188,3.84375 58.1562,3.84375 C58.4688,3.84375 58.7682,3.875 59.0547,3.9375 C59.3411,4 59.6198,4.09375 59.8906,4.21875 M66.2969,5.14062 C66.5469,4.69271 66.8438,4.36458 67.1875,4.15625 C67.5312,3.94792 67.9375,3.84375 68.4062,3.84375 C69.0312,3.84375 69.513,4.0625 69.8516,4.5 C70.1901,4.9375 70.3594,5.5625 70.3594,6.375 L70.3594,10 L69.3594,10 L69.3594,6.40625 C69.3594,5.82292 69.2578,5.39323 69.0547,5.11719 C68.8516,4.84115 68.5417,4.70312 68.125,4.70312 C67.6146,4.70312 67.2109,4.8724 66.9141,5.21094 C66.6172,5.54948 66.4688,6.01042 66.4688,6.59375 L66.4688,10 L65.4688,10 L65.4688,6.40625 C65.4688,5.82292 65.3672,5.39323 65.1641,5.11719 C64.9609,4.84115 64.6458,4.70312 64.2188,4.70312 C63.7188,4.70312 63.3203,4.8724 63.0234,5.21094 C62.7266,5.54948 62.5781,6.01042 62.5781,6.59375 L62.5781,10 L61.5781,10 L61.5781,3.98438 L62.5781,3.98438 L62.5781,4.92188 C62.7969,4.54688 63.0651,4.27344 63.3828,4.10156 C63.7005,3.92969 64.0729,3.84375 64.5,3.84375 C64.9375,3.84375 65.3099,3.95312 65.6172,4.17188 C65.9245,4.39062 66.151,4.71354 66.2969,5.14062 M76.2812,4.89062 L76.2812,1.64062 L77.2656,1.64062 L77.2656,10 L76.2812,10 L76.2812,9.09375 C76.0729,9.45833 75.8099,9.72656 75.4922,9.89844 C75.1745,10.0703 74.7917,10.1562 74.3438,10.1562 C73.625,10.1562 73.0365,9.86719 72.5781,9.28906 C72.1198,8.71094 71.8906,7.94792 71.8906,7 C71.8906,6.05208 72.1198,5.28906 72.5781,4.71094 C73.0365,4.13281 73.625,3.84375 74.3438,3.84375 C74.7917,3.84375 75.1745,3.92969 75.4922,4.10156 C75.8099,4.27344 76.0729,4.53646 76.2812,4.89062 M72.9062,7 C72.9062,7.72917 73.0573,8.29948 73.3594,8.71094 C73.6615,9.1224 74.0729,9.32812 74.5938,9.32812 C75.1146,9.32812 75.526,9.1224 75.8281,8.71094 C76.1302,8.29948 76.2812,7.72917 76.2812,7 C76.2812,6.27083 76.1302,5.70052 75.8281,5.28906 C75.526,4.8776 75.1146,4.67188 74.5938,4.67188 C74.0729,4.67188 73.6615,4.8776 73.3594,5.28906 C73.0573,5.70052 72.9062,6.27083 72.9062,7 M83.8594,11.8281 L83.8594,12.5938 L78.1406,12.5938 L78.1406,11.8281 L83.8594,11.8281 M84.0781,3.98438 L85.125,3.98438 L87,9.03125 L88.8906,3.98438 L89.9375,3.98438 L87.6719,10 L86.3281,10 L84.0781,3.98438 M96.4375,6.75 L96.4375,7.23438 L91.8906,7.23438 C91.9323,7.91146 92.1354,8.42708 92.5,8.78125 C92.8646,9.13542 93.375,9.3125 94.0312,9.3125 C94.4167,9.3125 94.7865,9.26562 95.1406,9.17188 C95.4948,9.07812 95.849,8.94271 96.2031,8.76562 L96.2031,9.6875 C95.849,9.84375 95.4844,9.96094 95.1094,10.0391 C94.7344,10.1172 94.3594,10.1562 93.9844,10.1562 C93.0156,10.1562 92.2526,9.8776 91.6953,9.32031 C91.138,8.76302 90.8594,8.00521 90.8594,7.04688 C90.8594,6.06771 91.125,5.28906 91.6562,4.71094 C92.1875,4.13281 92.9062,3.84375 93.8125,3.84375 C94.6146,3.84375 95.2526,4.10417 95.7266,4.625 C96.2005,5.14583 96.4375,5.85417 96.4375,6.75 M95.4375,6.45312 C95.4375,5.91146 95.2891,5.47917 94.9922,5.15625 C94.6953,4.83333 94.3021,4.67188 93.8125,4.67188 C93.2604,4.67188 92.8203,4.82812 92.4922,5.14062 C92.1641,5.45312 91.974,5.89062 91.9219,6.45312 L95.4375,6.45312 M98.0469,1.64062 L99.0469,1.64062 L99.0469,10 L98.0469,10 L98.0469,1.64062"/>
</g>

<g fill="none" stroke="#000000" stroke-opacity="1" stroke-width="1" stroke-linecap="square" stroke-linejoin="bevel" transform="matrix(2,0,0,2,483.3,46)"
font-family="sans" font-size="11" font-weight="100" font-style="normal" 
>
</g>

<g fill="none" stroke="#000000" stroke-opacity="1" stroke-width="1" stroke-linecap="square" stroke-linejoin="bevel" transform="matrix(2,0,0,2,483.3,46)"
font-family="Ubuntu" font-size="11" font-weight="400" font-style="normal" 
>
</g>

<g fill="none" stroke="#000000" stroke-opacity="1" stroke-width="1" stroke-linecap="square" stroke-linejoin="bevel" transform="matrix(2,0,0,2,0.0024,150)"
font-family="Ubuntu" font-size="11" font-weight="400" font-style="normal" 
>
</g>

<g fill="#000000" fill-opacity="1" stroke="#000000" stroke-opacity="1" stroke-width="1" stroke-linecap="square" stroke-linejoin="round" transform="matrix(2,0,0,2,0.0024,150)"
font-family="Ubuntu" font-size="11" font-weight="400" font-style="normal" 
>
<path vector-effect="none" fill-rule="evenodd" d="M345.75,-26.139 L345.367,-22.625 L355.79,-25.046 L346.133,-29.653 L345.75,-26.139"/>
</g>

<g fill="none" stroke="#000000" stroke-opacity="1" stroke-width="1" stroke-linecap="square" stroke-linejoin="bevel" transform="matrix(2,0,0,2,0.0024,150)"
font-family="Ubuntu" font-size="11" font-weight="400" font-style="normal" 
>
</g>

<g fill="none" stroke="#000000" stroke-opacity="1" stroke-width="1" stroke-linecap="square" stroke-linejoin="bevel" transform="matrix(2,0,0,2,0.0024,150)"
font-family="Ubuntu" font-size="11" font-weight="400" font-style="normal" 
>
</g>

<g fill="none" stroke="#000000" stroke-opacity="1" stroke-width="1" stroke-linecap="square" stroke-linejoin="bevel" transform="matrix(2,0,0,2,0.0024,150)"
font-family="Ubuntu" font-size="11" font-weight="400" font-style="normal" 
>
</g>

<g fill="none" stroke="#000000" stroke-opacity="1" stroke-width="1" stroke-linecap="square" stroke-linejoin="bevel" transform="matrix(2,0,0,2,0.0024,150)"
font-family="Ubuntu" font-size="11" font-weight="400" font-style="normal" 
>
</g>

<g fill="none" stroke="#000000" stroke-opacity="1" stroke-width="1" stroke-linecap="square" stroke-linejoin="round" transform="matrix(2,0,0,2,0.0024,150)"
font-family="Ubuntu" font-size="11" font-weight="400" font-style="normal" 
>
<path vector-effect="none" fill-rule="evenodd" d="M226.95,-56.587 C231.59,-56.743 236.18,-56.882 240.68,-57 C402.43,-61.244 445.42,-58.741 609.78,-58.01 "/>
</g>

<g fill="none" stroke="#000000" stroke-opacity="1" stroke-width="1" stroke-linecap="square" stroke-linejoin="bevel" transform="matrix(2,0,0,2,0.0024,150)"
font-family="Ubuntu" font-size="11" font-weight="400" font-style="normal" 
>
</g>

<g fill="none" stroke="#000000" stroke-opacity="1" stroke-width="1" stroke-linecap="square" stroke-linejoin="bevel" transform="matrix(2,0,0,2,742.98,4)"
font-family="Ubuntu" font-size="11" font-weight="400" font-style="normal" 
>
</g>

<g fill="none" stroke="#000000" stroke-opacity="1" stroke-width="1" stroke-linecap="square" stroke-linejoin="bevel" transform="matrix(2,0,0,2,742.98,4)"
font-family="sans" font-size="11" font-weight="100" font-style="normal" 
>
</g>

<g fill="#000000" fill-opacity="1" stroke="#000000" stroke-opacity="1" stroke-width="1" stroke-linecap="square" stroke-linejoin="round" transform="matrix(2,0,0,2,742.98,4)"
font-family="sans" font-size="11" font-weight="100" font-style="normal" 
>
<path vector-effect="none" fill-rule="nonzero" d="M2.79688,1.98438 L3.70312,1.98438 L0.90625,11.0156 L0,11.0156 L2.79688,1.98438 M9.42188,5.14062 C9.67188,4.69271 9.96875,4.36458 10.3125,4.15625 C10.6562,3.94792 11.0625,3.84375 11.5312,3.84375 C12.1562,3.84375 12.638,4.0625 12.9766,4.5 C13.3151,4.9375 13.4844,5.5625 13.4844,6.375 L13.4844,10 L12.4844,10 L12.4844,6.40625 C12.4844,5.82292 12.3828,5.39323 12.1797,5.11719 C11.9766,4.84115 11.6667,4.70312 11.25,4.70312 C10.7396,4.70312 10.3359,4.8724 10.0391,5.21094 C9.74219,5.54948 9.59375,6.01042 9.59375,6.59375 L9.59375,10 L8.59375,10 L8.59375,6.40625 C8.59375,5.82292 8.49219,5.39323 8.28906,5.11719 C8.08594,4.84115 7.77083,4.70312 7.34375,4.70312 C6.84375,4.70312 6.44531,4.8724 6.14844,5.21094 C5.85156,5.54948 5.70312,6.01042 5.70312,6.59375 L5.70312,10 L4.70312,10 L4.70312,3.98438 L5.70312,3.98438 L5.70312,4.92188 C5.92188,4.54688 6.1901,4.27344 6.50781,4.10156 C6.82552,3.92969 7.19792,3.84375 7.625,3.84375 C8.0625,3.84375 8.4349,3.95312 8.74219,4.17188 C9.04948,4.39062 9.27604,4.71354 9.42188,5.14062 M17.9531,10.5625 C17.6719,11.2812 17.3984,11.7474 17.1328,11.9609 C16.8672,12.1745 16.5104,12.2812 16.0625,12.2812 L15.2812,12.2812 L15.2812,11.4688 L15.8594,11.4688 C16.1302,11.4688 16.3411,11.4036 16.4922,11.2734 C16.6432,11.1432 16.8073,10.8385 16.9844,10.3594 L17.1719,9.90625 L14.7344,3.98438 L15.7812,3.98438 L17.6562,8.6875 L19.5469,3.98438 L20.5938,3.98438 L17.9531,10.5625 M22.9219,2.28125 L22.9219,3.98438 L24.9531,3.98438 L24.9531,4.75 L22.9219,4.75 L22.9219,8.01562 C22.9219,8.50521 22.9896,8.82031 23.125,8.96094 C23.2604,9.10156 23.5312,9.17188 23.9375,9.17188 L24.9531,9.17188 L24.9531,10 L23.9375,10 C23.1771,10 22.651,9.85677 22.3594,9.57031 C22.0677,9.28385 21.9219,8.76562 21.9219,8.01562 L21.9219,4.75 L21.2031,4.75 L21.2031,3.98438 L21.9219,3.98438 L21.9219,2.28125 L22.9219,2.28125 M26.1562,7.625 L26.1562,3.98438 L27.1406,3.98438 L27.1406,7.59375 C27.1406,8.15625 27.2526,8.58073 27.4766,8.86719 C27.7005,9.15365 28.0312,9.29688 28.4688,9.29688 C29.0104,9.29688 29.4349,9.1276 29.7422,8.78906 C30.0495,8.45052 30.2031,7.98438 30.2031,7.39062 L30.2031,3.98438 L31.1875,3.98438 L31.1875,10 L30.2031,10 L30.2031,9.07812 C29.9635,9.44271 29.6849,9.71354 29.3672,9.89062 C29.0495,10.0677 28.6823,10.1562 28.2656,10.1562 C27.5781,10.1562 27.0547,9.9401 26.6953,9.50781 C26.3359,9.07552 26.1562,8.44792 26.1562,7.625 M36.7031,4.90625 C36.599,4.84375 36.4818,4.79688 36.3516,4.76562 C36.2214,4.73438 36.0781,4.71875 35.9219,4.71875 C35.3594,4.71875 34.9297,4.90104 34.6328,5.26562 C34.3359,5.63021 34.1875,6.15104 34.1875,6.82812 L34.1875,10 L33.1875,10 L33.1875,3.98438 L34.1875,3.98438 L34.1875,4.92188 C34.3854,4.55729 34.651,4.28646 34.9844,4.10938 C35.3177,3.93229 35.724,3.84375 36.2031,3.84375 C36.276,3.84375 36.3516,3.84635 36.4297,3.85156 C36.5078,3.85677 36.599,3.86979 36.7031,3.89062 L36.7031,4.90625 M38.7188,2.28125 L38.7188,3.98438 L40.75,3.98438 L40.75,4.75 L38.7188,4.75 L38.7188,8.01562 C38.7188,8.50521 38.7865,8.82031 38.9219,8.96094 C39.0573,9.10156 39.3281,9.17188 39.7344,9.17188 L40.75,9.17188 L40.75,10 L39.7344,10 C38.974,10 38.4479,9.85677 38.1562,9.57031 C37.8646,9.28385 37.7188,8.76562 37.7188,8.01562 L37.7188,4.75 L37,4.75 L37,3.98438 L37.7188,3.98438 L37.7188,2.28125 L38.7188,2.28125 M42.0469,1.64062 L43.0469,1.64062 L43.0469,10 L42.0469,10 L42.0469,1.64062 M50.25,6.75 L50.25,7.23438 L45.7031,7.23438 C45.7448,7.91146 45.9479,8.42708 46.3125,8.78125 C46.6771,9.13542 47.1875,9.3125 47.8438,9.3125 C48.2292,9.3125 48.599,9.26562 48.9531,9.17188 C49.3073,9.07812 49.6615,8.94271 50.0156,8.76562 L50.0156,9.6875 C49.6615,9.84375 49.2969,9.96094 48.9219,10.0391 C48.5469,10.1172 48.1719,10.1562 47.7969,10.1562 C46.8281,10.1562 46.0651,9.8776 45.5078,9.32031 C44.9505,8.76302 44.6719,8.00521 44.6719,7.04688 C44.6719,6.06771 44.9375,5.28906 45.4688,4.71094 C46,4.13281 46.7188,3.84375 47.625,3.84375 C48.4271,3.84375 49.0651,4.10417 49.5391,4.625 C50.013,5.14583 50.25,5.85417 50.25,6.75 M49.25,6.45312 C49.25,5.91146 49.1016,5.47917 48.8047,5.15625 C48.5078,4.83333 48.1146,4.67188 47.625,4.67188 C47.0729,4.67188 46.6328,4.82812 46.3047,5.14062 C45.9766,5.45312 45.7865,5.89062 45.7344,6.45312 L49.25,6.45312 M53.625,1.98438 L54.5312,1.98438 L51.7344,11.0156 L50.8281,11.0156 L53.625,1.98438 M59.8906,4.21875 L59.8906,5.14062 C59.6198,4.98438 59.3438,4.86719 59.0625,4.78906 C58.7812,4.71094 58.4948,4.67188 58.2031,4.67188 C57.5677,4.67188 57.0729,4.875 56.7188,5.28125 C56.3646,5.6875 56.1875,6.26042 56.1875,7 C56.1875,7.72917 56.3646,8.29688 56.7188,8.70312 C57.0729,9.10938 57.5677,9.3125 58.2031,9.3125 C58.4948,9.3125 58.7812,9.27604 59.0625,9.20312 C59.3438,9.13021 59.6198,9.01562 59.8906,8.85938 L59.8906,9.76562 C59.6198,9.90104 59.3359,10 59.0391,10.0625 C58.7422,10.125 58.4271,10.1562 58.0938,10.1562 C57.1875,10.1562 56.4688,9.8724 55.9375,9.30469 C55.4062,8.73698 55.1406,7.96875 55.1406,7 C55.1406,6.02083 55.4089,5.25 55.9453,4.6875 C56.4818,4.125 57.2188,3.84375 58.1562,3.84375 C58.4688,3.84375 58.7682,3.875 59.0547,3.9375 C59.3411,4 59.6198,4.09375 59.8906,4.21875 M66.2969,5.14062 C66.5469,4.69271 66.8438,4.36458 67.1875,4.15625 C67.5312,3.94792 67.9375,3.84375 68.4062,3.84375 C69.0312,3.84375 69.513,4.0625 69.8516,4.5 C70.1901,4.9375 70.3594,5.5625 70.3594,6.375 L70.3594,10 L69.3594,10 L69.3594,6.40625 C69.3594,5.82292 69.2578,5.39323 69.0547,5.11719 C68.8516,4.84115 68.5417,4.70312 68.125,4.70312 C67.6146,4.70312 67.2109,4.8724 66.9141,5.21094 C66.6172,5.54948 66.4688,6.01042 66.4688,6.59375 L66.4688,10 L65.4688,10 L65.4688,6.40625 C65.4688,5.82292 65.3672,5.39323 65.1641,5.11719 C64.9609,4.84115 64.6458,4.70312 64.2188,4.70312 C63.7188,4.70312 63.3203,4.8724 63.0234,5.21094 C62.7266,5.54948 62.5781,6.01042 62.5781,6.59375 L62.5781,10 L61.5781,10 L61.5781,3.98438 L62.5781,3.98438 L62.5781,4.92188 C62.7969,4.54688 63.0651,4.27344 63.3828,4.10156 C63.7005,3.92969 64.0729,3.84375 64.5,3.84375 C64.9375,3.84375 65.3099,3.95312 65.6172,4.17188 C65.9245,4.39062 66.151,4.71354 66.2969,5.14062 M76.2812,4.89062 L76.2812,1.64062 L77.2656,1.64062 L77.2656,10 L76.2812,10 L76.2812,9.09375 C76.0729,9.45833 75.8099,9.72656 75.4922,9.89844 C75.1745,10.0703 74.7917,10.1562 74.3438,10.1562 C73.625,10.1562 73.0365,9.86719 72.5781,9.28906 C72.1198,8.71094 71.8906,7.94792 71.8906,7 C71.8906,6.05208 72.1198,5.28906 72.5781,4.71094 C73.0365,4.13281 73.625,3.84375 74.3438,3.84375 C74.7917,3.84375 75.1745,3.92969 75.4922,4.10156 C75.8099,4.27344 76.0729,4.53646 76.2812,4.89062 M72.9062,7 C72.9062,7.72917 73.0573,8.29948 73.3594,8.71094 C73.6615,9.1224 74.0729,9.32812 74.5938,9.32812 C75.1146,9.32812 75.526,9.1224 75.8281,8.71094 C76.1302,8.29948 76.2812,7.72917 76.2812,7 C76.2812,6.27083 76.1302,5.70052 75.8281,5.28906 C75.526,4.8776 75.1146,4.67188 74.5938,4.67188 C74.0729,4.67188 73.6615,4.8776 73.3594,5.28906 C73.0573,5.70052 72.9062,6.27083 72.9062,7 M83.8594,11.8281 L83.8594,12.5938 L78.1406,12.5938 L78.1406,11.8281 L83.8594,11.8281 M84.0781,3.98438 L85.125,3.98438 L87,9.03125 L88.8906,3.98438 L89.9375,3.98438 L87.6719,10 L86.3281,10 L84.0781,3.98438 M96.4375,6.75 L96.4375,7.23438 L91.8906,7.23438 C91.9323,7.91146 92.1354,8.42708 92.5,8.78125 C92.8646,9.13542 93.375,9.3125 94.0312,9.3125 C94.4167,9.3125 94.7865,9.26562 95.1406,9.17188 C95.4948,9.07812 95.849,8.94271 96.2031,8.76562 L96.2031,9.6875 C95.849,9.84375 95.4844,9.96094 95.1094,10.0391 C94.7344,10.1172 94.3594,10.1562 93.9844,10.1562 C93.0156,10.1562 92.2526,9.8776 91.6953,9.32031 C91.138,8.76302 90.8594,8.00521 90.8594,7.04688 C90.8594,6.06771 91.125,5.28906 91.6562,4.71094 C92.1875,4.13281 92.9062,3.84375 93.8125,3.84375 C94.6146,3.84375 95.2526,4.10417 95.7266,4.625 C96.2005,5.14583 96.4375,5.85417 96.4375,6.75 M95.4375,6.45312 C95.4375,5.91146 95.2891,5.47917 94.9922,5.15625 C94.6953,4.83333 94.3021,4.67188 93.8125,4.67188 C93.2604,4.67188 92.8203,4.82812 92.4922,5.14062 C92.1641,5.45312 91.974,5.89062 91.9219,6.45312 L95.4375,6.45312 M98.0469,1.64062 L99.0469,1.64062 L99.0469,10 L98.0469,10 L98.0469,1.64062"/>
</g>

<g fill="none" stroke="#000000" stroke-opacity="1" stroke-width="1" stroke-linecap="square" stroke-linejoin="bevel" transform="matrix(2,0,0,2,742.98,4)"
font-family="sans" font-size="11" font-weight="100" font-style="normal" 
>
</g>

<g fill="none" stroke="#000000" stroke-opacity="1" stroke-width="1" stroke-linecap="square" stroke-linejoin="bevel" transform="matrix(2,0,0,2,742.98,4)"
font-family="Ubuntu" font-size="11" font-weight="400" font-style="normal" 
>
</g>

<g fill="none" stroke="#000000" stroke-opacity="1" stroke-width="1" stroke-linecap="square" stroke-linejoin="bevel" transform="matrix(2,0,0,2,0.0024,150)"
font-family="Ubuntu" font-size="11" font-weight="400" font-style="normal" 
>
</g>

<g fill="#000000" fill-opacity="1" stroke="#000000" stroke-opacity="1" stroke-width="1" stroke-linecap="square" stroke-linejoin="round" transform="matrix(2,0,0,2,0.0024,150)"
font-family="Ubuntu" font-size="11" font-weight="400" font-style="normal" 
>
<path vector-effect="none" fill-rule="evenodd" d="M609.78,-58.01 L609.765,-54.342 L620.26,-57.967 L609.795,-61.678 L609.78,-58.01"/>
</g>

<g fill="none" stroke="#000000" stroke-opacity="1" stroke-width="1" stroke-linecap="square" stroke-linejoin="bevel" transform="matrix(2,0,0,2,0.0024,150)"
font-family="Ubuntu" font-size="11" font-weight="400" font-style="normal" 
>
</g>

<g fill="none" stroke="#000000" stroke-opacity="1" stroke-width="1" stroke-linecap="square" stroke-linejoin="bevel" transform="matrix(1,0,0,1,0,0)"
font-family="Ubuntu" font-size="11" font-weight="400" font-style="normal" 
>
</g>
</g>
</svg>
